<svg width="469" height="454" viewBox="0 0 469 454" fill="none" xmlns="http://www.w3.org/2000/svg">
<path d="M226.998 362.289V91.3477C226.998 91.3477 264.845 89.6102 270.229 109.295C270.229 109.295 296.934 103.505 286.164 134.768C286.164 134.768 309.984 119.137 326.733 145.767C326.733 145.767 355.095 142.295 352.702 171.24C352.702 171.24 389.006 202.115 352.969 237.624C352.969 237.624 316.993 280.08 273.922 251.713C273.922 251.713 264.776 268.501 243.642 263.871L247.404 362.341L226.998 362.289Z" fill="#45B29A"/>
<path d="M229.713 361.115H215.356L222.535 259.955C222.535 259.955 202.195 257.134 190.83 246.713C190.83 246.713 170.49 249.258 159.124 235.559C159.124 235.559 168.695 242.719 180.062 241.562C180.062 241.562 159.979 224.03 151.118 211.308C151.118 211.308 123.83 210.893 108.275 191.788C108.275 191.788 133.167 210.647 148.722 207.752C148.722 207.752 133.401 195.844 129.811 173.267C129.811 173.267 136.191 189.568 141.574 192.463C141.574 192.463 135.195 173.267 139.383 153.582C139.383 153.582 134.2 194.203 164.709 219.098C164.709 219.098 156.133 205.686 160.919 184.267C160.919 184.267 153.74 223.634 201.597 246.211C201.597 246.211 181.259 234.055 181.856 204.529C181.856 204.529 184.848 223.922 192.624 230.289C192.624 230.289 186.244 215.237 190.231 197.581C190.231 197.581 190.83 247.369 223.134 252.582L224.928 235.597C224.928 235.597 206.981 213.792 204.589 197.003C204.589 197.003 168.695 174.424 168.995 148.951C168.995 148.951 177.071 165.739 182.455 170.372C182.455 170.372 176.473 154.742 181.259 148.951C181.259 148.951 181.259 181.95 202.793 187.739C202.793 187.739 185.446 157.634 190.231 114.216C190.231 114.216 190.231 136.214 196.812 150.109C196.812 150.109 195.018 127.531 206.981 107.846C206.981 107.846 190.612 157.634 210.761 191.214C210.761 191.214 214.16 173.845 215.356 160.529C215.356 160.529 218.348 179.056 213.562 199.319C213.562 199.319 214.759 213.641 230.909 230.43L229.713 361.115Z" fill="#45B29A"/>
<path d="M23.0816 141.433C22.5986 141.433 22.1079 141.337 21.6382 141.137C19.8249 140.364 18.9997 138.312 19.7984 136.559C20.7657 134.434 21.7667 132.327 22.7995 130.24C23.6551 128.507 25.7994 127.779 27.5876 128.609C29.3746 129.437 30.1294 131.512 29.2716 133.243C28.2721 135.262 27.3047 137.302 26.3694 139.358C25.7767 140.658 24.4608 141.433 23.0816 141.433ZM16.1072 158.681C15.7192 158.681 15.3266 158.621 14.939 158.494C13.0642 157.871 12.0689 155.894 12.7114 154.078C13.7655 151.116 14.8943 148.143 16.0671 145.247C16.79 143.458 18.8768 142.582 20.7169 143.279C22.5637 143.977 23.4741 145.993 22.7506 147.78C21.6148 150.587 20.5206 153.465 19.5019 156.339C18.9899 157.777 17.5974 158.681 16.1072 158.681ZM8.4891 185.458C8.24395 185.458 7.99843 185.435 7.75042 185.383C5.80859 184.992 4.5653 183.151 4.97219 181.275C6.28951 175.165 7.89535 169.031 9.74115 163.036C10.3093 161.199 12.3053 160.153 14.2073 160.701C16.1072 161.249 17.186 163.183 16.6202 165.024C14.8314 170.83 13.2773 176.776 11.9962 182.694C11.6435 184.334 10.1508 185.458 8.4891 185.458ZM3.58817 231.449C1.60718 231.449 0 229.893 0 227.975C0 215.42 1.07002 202.816 3.17949 190.519C3.50466 188.626 5.34171 187.35 7.30866 187.662C9.26265 187.977 10.5852 189.765 10.2604 191.658C8.2156 203.58 7.17875 215.799 7.17875 227.975C7.17875 229.893 5.57005 231.449 3.58817 231.449Z" fill="#45B29A"/>
<path d="M234.5 454C105.197 454 0 351.597 0 226.135H7.1788C7.1788 349.002 109.155 447.051 234.5 447.051C297.018 447.051 355.291 423.455 398.58 379.775L403.762 384.353C359.104 429.412 298.993 454 234.5 454Z" fill="#45B29A"/>
<path d="M384.043 374.859L417.935 363.729L410.955 397.701L384.043 374.859Z" fill="#45B29A"/>
<path d="M462.287 268.337C462.091 268.337 461.895 268.319 461.694 268.289C459.741 267.975 458.418 266.185 458.743 264.293C460.785 252.378 461.822 240.16 461.822 227.975C461.822 226.058 463.431 224.503 465.413 224.503C467.394 224.503 469.001 226.058 469.001 227.975C469.001 240.54 467.934 253.144 465.823 265.431C465.531 267.13 464.01 268.337 462.287 268.337ZM455.824 295.394C455.483 295.394 455.139 295.348 454.796 295.249C452.896 294.701 451.816 292.766 452.381 290.928C454.171 285.121 455.726 279.176 457.007 273.257C457.412 271.375 459.324 270.165 461.253 270.567C463.195 270.959 464.437 272.8 464.031 274.677C462.713 280.784 461.108 286.921 459.261 292.914C458.796 294.419 457.369 295.394 455.824 295.394ZM449.591 312.911C449.157 312.911 448.716 312.834 448.285 312.674C446.439 311.974 445.527 309.96 446.248 308.174C447.402 305.32 448.497 302.438 449.499 299.612C450.143 297.801 452.187 296.846 454.061 297.456C455.936 298.082 456.932 300.057 456.289 301.873C455.251 304.789 454.123 307.76 452.936 310.702C452.381 312.075 451.027 312.911 449.591 312.911ZM443.425 326.738C442.912 326.738 442.392 326.632 441.897 326.405C440.105 325.589 439.336 323.519 440.182 321.783C441.019 320.065 441.836 318.334 442.629 316.591C443.433 314.834 445.554 314.045 447.36 314.812C449.175 315.584 449.998 317.636 449.199 319.39C448.38 321.188 447.537 322.973 446.674 324.746C446.06 326.003 444.771 326.738 443.425 326.738Z" fill="#45B29A"/>
<path d="M469.001 226.135H461.822C461.822 105.864 359.846 7.06151 234.501 7.06151C172.065 7.06151 113.846 31.5206 70.5684 75.102L65.3926 70.5196C110.035 25.5607 170.092 0.000135549 234.501 0.000135549C363.804 0.000135549 469.001 101.537 469.001 226.135Z" fill="#45B29A"/>
<path d="M85.1006 80.952L51.1973 92.0515L58.2122 58.0866L85.1006 80.952Z" fill="#45B29A"/>
</svg>
