<svg width="1268" height="1090" viewBox="0 0 1268 1090" fill="none" xmlns="http://www.w3.org/2000/svg">
<g clip-path="url(#clip0)">
<rect width="1268" height="1090" fill="black"/>
<path d="M0 545V1090H634H1268V545V-3.317e-05H634H0V545ZM717.688 476.33L630.196 551.54L542.704 476.33L455.212 401.12L542.704 325.91L630.196 250.7L717.688 325.91L805.18 401.12L717.688 476.33ZM478.543 624.352C484.122 628.494 485.644 631.328 485.644 638.522C485.644 651.82 478.543 656.834 457.748 657.924L441.264 658.796V638.958V619.12H456.226C468.653 619.12 472.71 619.992 478.543 624.352ZM530.531 638.086C539.154 656.616 539.407 657.27 534.335 657.924C531.546 658.36 528.249 657.27 526.981 655.308C525.459 653.128 521.148 651.82 514.808 651.82C508.468 651.82 504.157 653.128 502.635 655.308C501.367 657.27 498.07 658.36 495.027 657.924C489.955 657.27 490.209 656.616 499.085 638.304C507.454 621.3 509.229 619.12 515.062 619.12C520.641 619.12 522.416 621.3 530.531 638.086ZM582.012 621.954C589.113 626.532 584.548 629.802 573.136 628.494C561.217 626.968 555.384 630.238 555.384 638.522C555.384 646.152 559.695 649.64 568.571 649.64C574.404 649.64 575.672 648.768 575.672 644.19C575.672 640.266 576.94 638.74 580.744 638.74C584.802 638.74 585.816 640.266 585.816 646.37C585.816 655.09 580.744 658.36 567.05 658.36C553.609 658.36 543.972 650.294 543.972 638.74C543.972 631.328 545.494 628.494 551.073 624.352C559.188 618.466 574.404 617.376 582.012 621.954ZM631.464 622.39C631.464 624.788 628.421 625.66 620.052 625.66C610.415 625.66 608.64 626.314 608.64 630.02C608.64 633.726 610.415 634.38 620.306 634.38C629.942 634.38 631.718 635.034 630.957 638.086C630.45 640.92 627.153 642.228 619.291 642.664C603.822 643.754 604.836 649.204 620.559 650.076C629.689 650.512 632.986 651.602 633.493 654.436C634.254 657.924 631.971 658.36 615.234 658.36H595.96V638.74V619.12H613.712C627.914 619.12 631.464 619.774 631.464 622.39ZM674.069 620.864C679.394 623.916 674.83 630.456 668.49 628.712C652.766 624.352 650.23 629.584 664.939 635.47C674.83 639.394 675.844 640.702 675.844 647.46C675.844 653.564 674.576 655.308 669.25 657.052C662.657 659.014 648.202 657.488 642.115 654.436C637.297 651.82 641.101 644.626 646.426 646.588C648.709 647.46 654.288 648.55 659.106 649.204C669.758 650.512 668.997 645.498 657.838 642.446C642.622 638.086 637.804 630.674 645.919 623.044C650.23 618.902 667.729 617.594 674.069 620.864ZM720.224 622.39C720.224 624.352 717.942 625.66 713.884 625.66C707.798 625.66 707.544 626.096 707.544 642.01C707.544 657.924 707.29 658.36 701.204 658.36C695.118 658.36 694.864 657.924 694.864 642.01C694.864 626.096 694.61 625.66 688.524 625.66C684.466 625.66 682.184 624.352 682.184 622.39C682.184 619.774 685.988 619.12 701.204 619.12C716.42 619.12 720.224 619.774 720.224 622.39ZM763.843 638.086C772.466 656.616 772.719 657.27 767.647 657.924C764.858 658.36 761.561 657.27 760.293 655.308C758.771 653.128 754.46 651.82 748.12 651.82C741.78 651.82 737.469 653.128 735.947 655.308C734.679 657.27 731.382 658.36 728.339 657.924C723.267 657.27 723.521 656.616 732.397 638.304C740.766 621.3 742.541 619.12 748.374 619.12C753.953 619.12 755.728 621.3 763.843 638.086ZM800.615 630.456L810.252 642.01L811.013 630.456C811.774 620.864 812.534 619.12 816.846 619.12C821.157 619.12 821.664 620.646 821.664 638.74C821.664 656.616 821.157 658.36 816.846 658.36C813.802 658.36 807.97 653.564 801.63 645.934L791.232 633.29V645.934C791.232 656.834 790.725 658.36 786.16 658.36C781.342 658.36 781.088 656.834 781.088 638.74C781.088 620.864 781.595 619.12 785.906 619.12C788.95 619.12 794.782 623.698 800.615 630.456ZM481.84 688.88C484.63 691.278 486.912 695.202 486.912 697.6C486.912 704.358 475.754 712.86 466.624 712.86C460.284 712.86 459.016 713.732 459.016 718.31C459.016 722.234 457.748 723.76 453.944 723.76C449.126 723.76 448.872 722.234 448.872 704.14V684.52H462.82C473.471 684.52 478.036 685.61 481.84 688.88ZM530.531 703.486C539.154 722.016 539.407 722.67 534.335 723.324C531.546 723.76 528.249 722.67 526.981 720.708C525.459 718.528 521.148 717.22 514.808 717.22C508.468 717.22 504.157 718.528 502.635 720.708C501.367 722.67 498.07 723.76 495.027 723.324C489.955 722.67 490.209 722.016 499.085 703.704C507.454 686.7 509.229 684.52 515.062 684.52C520.641 684.52 522.416 686.7 530.531 703.486ZM582.519 689.752C588.098 693.894 589.62 696.728 589.62 703.922C589.62 717.22 582.519 722.234 561.724 723.324L545.24 724.196V704.358V684.52H560.202C572.629 684.52 576.686 685.392 582.519 689.752ZM618.023 695.638L627.66 706.538L628.421 695.638C629.182 685.392 629.689 684.52 635.522 684.52C641.608 684.52 641.608 684.738 641.608 704.14C641.608 723.324 641.354 723.76 635.775 723.76C631.464 723.76 627.153 720.49 619.798 711.334L609.908 698.908L609.147 711.334C608.386 722.016 607.626 723.76 603.568 723.76C599.003 723.76 598.496 722.234 598.496 704.14C598.496 686.046 599.003 684.52 603.568 684.52C606.611 684.52 612.19 688.88 618.023 695.638ZM687.256 687.572C687.256 689.97 683.706 691.06 675.337 691.496C666.207 691.932 662.91 693.022 662.403 695.856C661.642 699.126 663.418 699.78 673.054 699.78C682.945 699.78 684.72 700.434 684.72 704.14C684.72 707.846 682.945 708.5 673.308 708.5C664.939 708.5 661.896 709.372 661.896 711.77C661.896 714.168 664.939 715.04 674.576 715.04C685.481 715.04 687.256 715.694 687.256 719.4C687.256 723.324 685.481 723.76 669.504 723.76H651.752V704.14V684.52H669.504C683.198 684.52 687.256 685.174 687.256 687.572ZM716.166 695.856L721.999 707.41L728.846 695.856C734.172 686.7 736.708 684.52 741.78 684.52C748.12 684.52 748.12 684.738 748.12 704.14C748.12 722.234 747.866 723.76 743.048 723.76C738.483 723.76 737.976 722.234 737.722 711.116L737.469 698.69L732.143 708.936C725.042 722.234 719.97 722.452 713.123 708.936L707.798 698.69L707.544 711.116C707.544 722.234 707.037 723.76 702.472 723.76C697.654 723.76 697.4 722.234 697.4 704.14C697.4 684.52 697.4 684.52 703.74 684.52C709.066 684.52 711.094 686.482 716.166 695.856ZM768.408 704.14C768.408 722.234 768.154 723.76 763.336 723.76C758.518 723.76 758.264 722.234 758.264 704.14C758.264 686.046 758.518 684.52 763.336 684.52C768.154 684.52 768.408 686.046 768.408 704.14ZM815.578 687.572C822.171 691.932 817.353 696.292 808.73 693.676C799.854 691.06 793.768 692.804 790.978 699.126C786.414 709.59 801.883 720.272 810.506 712.86C812.534 711.116 814.31 711.552 816.592 713.95C820.396 718.092 817.86 720.49 807.209 722.888C784.638 728.12 768.408 703.486 785.146 689.97C793.007 683.648 807.716 682.558 815.578 687.572ZM469.16 804.42C469.16 805.292 466.37 805.51 462.82 804.856C454.451 803.548 454.451 808.126 462.82 811.396C467.385 813.14 469.16 815.32 468.653 818.372C467.892 823.604 457.494 825.784 452.93 821.86C450.901 819.68 451.662 819.462 456.987 820.552C463.581 821.86 470.682 817.5 464.595 815.756C463.074 815.32 459.016 813.14 455.973 810.742C450.394 806.818 450.394 806.382 454.705 803.548C459.27 800.496 469.16 801.15 469.16 804.42ZM501.874 821.86C501.874 824.476 501.367 824.258 499.338 821.206C496.042 816.41 485.39 816.41 482.094 821.206C476.768 829.708 477.782 822.078 483.615 810.96L489.955 798.97L495.788 808.78C499.085 814.23 501.874 820.116 501.874 821.86ZM557.92 802.24C557.92 803.33 555.13 804.42 551.58 804.42C542.45 804.42 543.211 810.96 552.341 811.178L559.188 811.614L552.341 812.486C541.69 813.794 542.704 821.206 553.609 822.514C560.71 823.168 560.202 823.386 551.073 823.604L540.168 824.04V813.576C540.168 807.69 540.929 802.24 541.943 801.586C544.479 799.188 557.92 799.842 557.92 802.24ZM605.597 806.164C612.698 814.23 605.343 824.04 591.649 824.04C583.28 824.04 583.28 824.04 583.28 813.576C583.28 807.69 584.041 802.24 585.055 801.368C587.845 798.97 602.046 802.24 605.597 806.164ZM638.818 821.86C638.818 824.476 638.311 824.258 636.282 821.206C632.986 816.41 622.334 816.41 619.038 821.206C613.712 829.708 614.726 822.078 620.559 810.96L626.899 798.97L632.732 808.78C636.029 814.23 638.818 820.116 638.818 821.86ZM698.668 802.24C699.682 803.548 696.893 804.42 692.582 804.42C682.438 804.42 681.677 810.742 691.821 811.178L698.668 811.614L691.821 812.486C681.17 813.794 682.184 821.206 693.089 822.514C700.95 823.386 700.95 823.386 691.821 823.604L682.184 824.04V812.05C682.184 800.278 682.184 800.06 689.538 800.06C693.85 800.06 697.907 800.932 698.668 802.24ZM725.296 804.42C725.296 805.292 722.506 805.51 718.956 804.856C710.841 803.548 710.587 808.126 718.702 810.96C726.818 813.576 729.1 817.064 725.296 820.77C721.746 824.476 711.094 825.13 708.812 821.642C707.798 820.334 709.573 819.68 714.138 820.116C723.014 820.988 724.789 816.846 716.42 813.576C709.066 810.742 707.798 802.894 714.645 801.804C719.717 800.714 725.296 802.022 725.296 804.42ZM753.192 802.24C753.192 803.33 751.417 804.42 749.388 804.42C746.598 804.42 745.584 807.254 745.077 814.666L744.57 825.13L743.809 814.666C743.048 806.164 742.034 804.42 737.722 804.42C734.933 804.42 733.411 803.33 734.172 802.24C734.933 800.932 739.751 800.06 744.57 800.06C749.388 800.06 753.192 800.932 753.192 802.24ZM783.37 821.86C783.37 824.476 782.863 824.258 780.834 821.206C777.538 816.41 766.886 816.41 763.59 821.206C758.264 829.708 759.278 822.078 765.111 810.96L771.451 798.97L777.284 808.78C780.581 814.23 783.37 820.116 783.37 821.86ZM803.658 809.216L811.52 818.372V810.306C811.52 805.946 812.788 802.24 814.056 802.24C815.578 802.24 816.592 807.036 816.592 813.14C816.592 819.026 815.578 824.04 814.31 824.04C813.042 824.04 808.477 819.898 804.166 815.102L796.558 806.164L795.543 815.538C794.782 824.258 794.529 823.822 794.275 812.486C794.022 805.728 794.275 800.06 794.782 800.06C795.29 800.06 799.347 804.202 803.658 809.216ZM524.698 811.396C526.727 806.382 529.517 802.24 530.531 802.24C533.321 802.24 523.684 822.514 520.641 823.386C519.119 823.822 516.33 819.898 513.794 814.884C508.214 801.586 508.975 799.188 515.315 810.96L520.641 820.77L524.698 811.396ZM669.504 804.202C669.504 805.074 666.714 805.51 663.164 804.856C651.498 803.112 645.158 811.614 653.274 818.372C658.853 823.168 664.178 822.732 666.968 816.846C669.504 812.05 669.504 812.05 668.743 817.5C668.49 821.642 666.461 823.168 661.642 823.604C649.723 824.694 641.608 811.832 649.723 804.856C653.274 801.804 669.504 801.368 669.504 804.202Z" fill="white"/>
<path d="M547.775 330.27L465.355 401.12L547.775 471.97L630.196 542.82L712.616 471.97L795.036 401.12L712.616 330.27L630.196 259.42L547.775 330.27ZM608.386 374.524C632.224 384.988 637.296 412.238 618.53 430.55C609.147 439.706 598.242 442.54 572.628 442.54H552.847V406.57V370.6H576.432C593.677 370.6 602.046 371.69 608.386 374.524ZM705.768 374.96C717.941 383.244 720.224 400.684 710.333 410.712C704.247 416.816 691.567 420.74 677.112 420.74H664.432V431.64C664.432 442.322 664.178 442.54 656.824 442.54H649.216V406.57V370.6H674.322C695.371 370.6 700.189 371.254 705.768 374.96Z" fill="white"/>
<path d="M567.304 380.846C566.29 381.5 565.529 393.272 565.529 407.006V431.64H579.477C596.722 431.64 607.12 427.28 612.699 418.124C618.278 408.968 615.996 395.67 607.881 388.694C599.765 381.718 572.376 376.268 567.304 380.846Z" fill="white"/>
<path d="M664.432 394.58V409.84H677.872C694.864 409.84 702.472 405.48 702.472 396.106C702.472 392.182 701.457 387.822 700.189 386.296C697.907 383.026 682.691 379.538 671.532 379.32C664.432 379.32 664.432 379.32 664.432 394.58Z" fill="white"/>
<path d="M453.945 637.65C453.945 649.422 454.199 649.64 461.046 649.64C469.922 649.64 474.233 646.152 474.233 638.522C474.233 631.982 466.372 625.66 458.51 625.66C454.706 625.66 453.945 627.622 453.945 637.65Z" fill="white"/>
<path d="M510.496 636.56C507.707 642.664 507.96 643.1 513.793 643.1C520.387 643.1 521.655 639.394 516.583 633.726C513.793 630.238 513.286 630.456 510.496 636.56Z" fill="white"/>
<path d="M743.809 636.56C741.019 642.664 741.273 643.1 747.106 643.1C753.699 643.1 754.967 639.394 749.895 633.726C747.106 630.238 746.599 630.456 743.809 636.56Z" fill="white"/>
<path d="M459.016 697.6C459.016 703.268 459.776 704.14 466.37 704.14C470.428 704.14 474.232 702.832 475.246 700.87C477.021 696.946 470.428 691.06 463.834 691.06C460.284 691.06 459.016 692.586 459.016 697.6Z" fill="white"/>
<path d="M510.496 701.96C507.707 708.064 507.96 708.5 513.793 708.5C520.387 708.5 521.655 704.794 516.583 699.126C513.793 695.638 513.286 695.856 510.496 701.96Z" fill="white"/>
<path d="M557.918 703.05C557.918 714.822 558.172 715.04 565.019 715.04C573.895 715.04 578.206 711.552 578.206 703.922C578.206 697.382 570.344 691.06 562.483 691.06C558.679 691.06 557.918 693.022 557.918 703.05Z" fill="white"/>
<path d="M487.166 810.742C484.63 814.666 484.884 815.32 489.449 815.32C495.028 815.32 495.789 813.794 492.238 808.998C490.463 806.6 489.449 807.036 487.166 810.742Z" fill="white"/>
<path d="M588.352 812.922C588.352 820.116 589.112 821.86 593.17 821.86C605.343 821.86 607.372 805.946 595.452 804.856C588.605 804.202 588.352 804.638 588.352 812.922Z" fill="white"/>
<path d="M624.11 810.742C621.574 814.666 621.827 815.32 626.392 815.32C631.971 815.32 632.732 813.794 629.182 808.998C627.406 806.6 626.392 807.036 624.11 810.742Z" fill="white"/>
<path d="M768.662 810.742C766.126 814.666 766.38 815.32 770.945 815.32C776.524 815.32 777.285 813.794 773.734 808.998C771.959 806.6 770.945 807.036 768.662 810.742Z" fill="white"/>
</g>
<defs>
<clipPath id="clip0">
<rect width="1268" height="1090" fill="white"/>
</clipPath>
</defs>
</svg>
