<svg width="823" height="594" viewBox="0 0 823 594" fill="none" xmlns="http://www.w3.org/2000/svg">
<path d="M223.857 198.28V244.56L233.569 244.04C249.535 243.13 248.547 246.12 248.547 198.02C248.547 149.53 249.37 152 233.569 152H223.857V198.28ZM239.988 157.46C241.47 158.63 241.963 169.16 241.963 196.98C241.963 217.91 241.47 235.85 240.976 237.02C240.482 238.19 238.178 239.1 236.038 239.1H232.087V197.5C232.087 158.37 232.252 155.9 235.05 155.9C236.696 155.9 238.836 156.55 239.988 157.46Z" fill="#FBFBFB"/>
<path d="M334.468 161.1C328.048 163.31 327.39 167.47 327.884 205.04C328.377 238.45 328.542 240.66 331.505 242.48C335.784 244.95 344.837 244.82 347.965 242.22C350.105 240.66 350.598 236.89 350.598 222.07V204H345.66C342.368 204 340.722 204.65 340.722 205.95C340.722 206.99 341.545 207.9 342.368 207.9C344.508 207.9 344.508 236.37 342.533 238.97C341.71 240.01 339.899 240.4 338.418 240.01C335.949 239.23 335.784 235.2 336.114 202.44C336.607 166.69 336.772 165.65 339.899 165.65C343.027 165.65 343.191 166.69 343.685 180.86C344.014 195.16 344.344 196.2 347.306 196.2C350.434 196.2 350.598 195.29 350.598 180.08C350.598 168.77 349.94 163.57 348.459 162.66C345.331 160.58 338.583 159.8 334.468 161.1Z" fill="white"/>
<path d="M429.113 162.53C427.467 163.31 425.492 165.13 424.833 166.69C422.2 172.02 425.821 191.52 431.746 205.56C437.672 219.21 440.799 235.72 438.001 238.97C437.178 240.01 435.368 240.4 433.886 240.01C431.746 239.36 431.253 237.02 431.253 227.4V215.7H426.973H422.693L423.352 228.18C423.846 238.58 424.504 241.05 427.138 242.48C431.417 244.95 440.306 244.82 443.762 242.09C448.371 238.32 446.067 218.3 438.989 201.4C432.405 185.93 429.607 170.07 432.899 166.95C434.545 165.39 435.532 165.26 437.178 166.43C438.824 167.47 439.483 171.24 439.483 179.43C439.483 190.09 439.812 191 442.775 191C445.902 191 446.067 190.09 446.067 178.13C446.067 166.17 445.737 165 442.445 163.18C438.166 160.84 433.392 160.58 429.113 162.53Z" fill="white"/>
<path d="M284.101 167.86C282.949 174.36 276.529 237.28 276.529 241.44C276.529 243.39 277.517 244.3 279.657 244.3C283.278 244.3 284.759 240.92 284.759 232.21C284.759 227.14 285.253 226.1 287.887 226.1C291.837 226.1 292.989 228.57 292.989 237.28C292.989 243.91 293.154 244.3 297.269 244.3C301.384 244.3 301.384 244.17 300.561 237.41C299.08 227.66 292.989 169.03 292.989 165.39C292.989 163.05 292.166 162.4 289.039 162.4C285.418 162.4 284.759 163.18 284.101 167.86ZM290.52 201.66C291.508 219.86 291.508 220.9 288.545 220.9C285.747 220.9 285.582 219.86 285.912 210.76C286.57 198.15 288.216 181.51 288.874 182.16C289.039 182.42 289.862 191.13 290.52 201.66Z" fill="white"/>
<path d="M380.227 203.35V244.3H388.457C395.534 244.3 396.687 243.91 396.687 241.7C396.687 239.75 395.534 239.1 392.572 239.1H388.457V220.9V202.7H392.572C397.839 202.7 398.168 199.19 393.065 198.54C389.444 198.15 389.28 197.63 388.786 182.16L388.292 166.3H392.572C395.205 166.3 396.687 165.52 396.687 164.35C396.687 162.92 394.711 162.4 388.457 162.4H380.227V203.35Z" fill="white"/>
<path d="M472.402 164.22C472.402 165.39 474.378 166.3 477.011 166.56L481.455 166.95L481.949 205.56C482.278 243.26 482.443 244.3 485.57 244.3C488.862 244.3 488.862 243.39 488.862 205.3V166.3H493.8C497.092 166.3 498.738 165.65 498.738 164.35C498.738 162.79 496.105 162.4 485.57 162.4C475.201 162.4 472.402 162.79 472.402 164.22Z" fill="white"/>
<path d="M530.013 165.26C530.013 169.16 523.758 230.13 522.606 238.06C521.783 244.04 521.783 244.3 525.898 244.3C529.848 244.3 530.013 243.91 530.013 237.28C530.013 228.57 531.165 226.1 535.115 226.1C537.584 226.1 538.243 227.01 538.243 231.17C538.243 239.88 540.053 244.3 543.345 244.3C547.296 244.3 547.296 244.95 543.181 205.3C538.572 160.97 538.901 162.4 533.963 162.4C531 162.4 530.013 163.05 530.013 165.26ZM536.926 207.64C537.42 219.99 537.255 220.9 534.292 220.9C531.33 220.9 531.165 220.12 532.317 208.94C532.811 202.44 533.469 193.47 533.469 189.18L533.634 181.25L534.951 187.75C535.774 191.26 536.597 200.23 536.926 207.64Z" fill="white"/>
<path d="M574.455 203.35C574.455 243.39 574.455 244.3 577.747 244.3C580.874 244.3 581.039 243.39 581.204 220.51L581.368 196.85L587.458 220.25C592.232 238.97 594.042 243.78 596.347 244.04C598.98 244.43 599.145 241.44 599.145 203.48C599.145 163.44 599.145 162.4 595.853 162.4C592.726 162.4 592.561 163.44 592.232 186.71L591.738 211.15L586.306 189.05C579.722 162.4 579.722 162.4 576.759 162.4C574.784 162.4 574.455 168.64 574.455 203.35Z" fill="white"/>
<path d="M222.211 302.15V348.3H226.326H230.441V325.55V302.8H235.544C246.736 302.8 246.901 302.41 246.901 279.4C246.901 255.61 247.23 256 231.429 256H222.211V302.15ZM238.342 261.46C239.659 262.5 240.317 268.35 240.317 279.4C240.317 296.3 239.329 298.9 233.404 298.9C230.606 298.9 230.441 297.34 230.441 279.4C230.441 261.46 230.606 259.9 233.404 259.9C235.05 259.9 237.19 260.55 238.342 261.46Z" fill="#2F5793"/>
<path d="M579.228 267.57L575.277 270.04V307.35C575.277 342.71 575.442 344.66 578.405 346.48C583.178 349.21 593.548 348.82 597.498 345.7C600.461 343.36 600.79 341.41 600.79 326.85V310.6H596.675H592.56V326.85C592.56 340.24 592.067 343.36 590.091 343.88C588.775 344.4 586.47 344.01 585.153 343.1C583.014 341.8 582.684 335.95 582.684 306.57C582.684 273.94 582.849 271.6 585.647 270.43C591.244 268.09 592.56 271.21 592.56 286.16V300.2H596.675H600.79V285.9C600.79 272.38 600.626 271.34 596.675 268.35C591.902 264.45 584.495 264.19 579.228 267.57Z" fill="#FBFBFB"/>
<path d="M280.808 271.86C279.656 278.36 273.236 341.28 273.236 345.44C273.236 347.39 274.224 348.3 276.364 348.3C279.985 348.3 281.466 344.92 281.466 336.21C281.466 331.14 281.96 330.1 284.594 330.1C288.544 330.1 289.696 332.57 289.696 341.28C289.696 347.91 289.861 348.3 293.976 348.3C298.091 348.3 298.091 348.17 297.268 341.41C295.787 331.66 289.696 273.03 289.696 269.39C289.696 267.05 288.873 266.4 285.746 266.4C282.125 266.4 281.466 267.18 280.808 271.86ZM287.227 305.66C288.215 323.86 288.215 324.9 285.252 324.9C282.454 324.9 282.289 323.86 282.619 314.76C283.277 302.15 284.923 285.51 285.581 286.16C285.746 286.42 286.569 295.13 287.227 305.66Z" fill="black"/>
<path d="M324.264 307.35C324.264 347.39 324.264 348.3 327.556 348.3C330.683 348.3 330.848 347.39 330.848 324.64C330.848 310.99 331.506 301.5 332.329 302.15C333.152 302.93 336.115 313.59 339.078 325.81C343.851 345.18 345.003 348.3 347.637 348.3C350.435 348.3 350.6 346.22 350.6 307.35C350.6 267.31 350.6 266.4 347.308 266.4C344.18 266.4 344.016 267.31 344.016 290.71C344.016 303.97 343.686 314.63 343.193 314.24C342.534 313.72 330.848 268.74 330.848 266.66C330.848 266.53 329.366 266.4 327.556 266.4C324.264 266.4 324.264 267.31 324.264 307.35Z" fill="#FF0000"/>
<path d="M378.58 307.48V348.69L389.608 347.91C397.509 347.39 401.13 346.61 402.776 344.92C404.422 343.1 404.916 334.26 404.916 306.57C404.916 264.45 405.739 266.4 389.114 266.4H378.58V307.48ZM396.357 306.96L396.686 343.1H391.748H386.81V306.57V270.17L391.419 270.56L395.863 270.95L396.357 306.96Z" fill="black"/>
<path d="M432.898 307.35V348.3H441.128C448.206 348.3 449.358 347.91 449.358 345.7C449.358 343.75 448.206 343.1 445.243 343.1H441.128V324.9V306.7H445.243C450.511 306.7 450.84 303.19 445.737 302.54C442.116 302.15 441.951 301.63 441.458 286.16L440.964 270.3H445.243C447.877 270.3 449.358 269.52 449.358 268.35C449.358 266.92 447.383 266.4 441.128 266.4H432.898V307.35Z" fill="black"/>
<path d="M477.342 307.35C477.342 347.39 477.342 348.3 480.634 348.3C483.761 348.3 483.926 347.39 484.09 324.51C484.09 311.51 484.42 301.37 484.749 302.15C485.407 303.32 490.51 340.37 490.51 343.23C490.51 343.88 491.168 344.4 491.991 344.4C492.814 344.4 494.296 336.6 495.448 327.11C498.74 299.16 500.057 298.51 500.221 324.51C500.386 347.39 500.55 348.3 503.678 348.3C506.97 348.3 506.97 347.39 506.97 307.35C506.97 267.7 506.805 266.4 503.842 266.4C499.727 266.4 499.563 267.05 496.106 291.1C494.625 302.15 492.814 312.03 492.32 312.81C491.662 313.72 489.851 305.01 488.205 293.31C484.584 267.05 484.255 266.4 480.469 266.4C477.506 266.4 477.342 268.09 477.342 307.35Z" fill="black"/>
<path d="M536.598 307.35V348.3H540.713H544.828V307.35V266.4H540.713H536.598V307.35Z" fill="black"/>
<path d="M261.879 391.72C259.41 394.06 260.726 396.14 265.994 397.7C271.755 399.52 271.096 402.12 265.006 401.08C259.08 400.17 258.257 402.25 264.018 403.42C272.907 405.11 277.186 399 269.121 396.14C263.689 394.19 263.854 391.98 269.121 392.89C271.755 393.28 273.071 392.89 272.742 391.98C271.755 389.77 264.183 389.51 261.879 391.72Z" fill="white"/>
<path d="M285.746 396.66C283.442 400.95 282.619 403.81 283.771 404.07C284.594 404.33 285.746 403.94 286.075 403.03C286.405 402.25 288.709 401.6 291.343 401.6C293.976 401.6 296.281 402.25 296.61 403.03C296.939 403.94 298.091 404.33 299.079 404.07C301.548 403.42 294.47 389.9 291.672 389.9C290.52 389.9 287.886 393.02 285.746 396.66ZM293.482 396.4C294.141 398.35 293.482 399 291.343 399C289.203 399 288.544 398.35 289.203 396.4C289.697 394.97 290.684 393.8 291.343 393.8C292.001 393.8 292.989 394.97 293.482 396.4Z" fill="black"/>
<path d="M309.449 390.81C309.449 394.32 315.375 404.2 317.35 403.94C319.654 403.55 326.568 391.33 325.086 390.16C323.605 388.99 321.136 391.46 320.148 395.1C318.502 400.82 316.692 400.82 314.552 395.1C313.564 392.24 311.918 389.9 311.095 389.9C310.108 389.9 309.449 390.29 309.449 390.81Z" fill="black"/>
<path d="M335.785 397.05V404.2H342.369C345.99 404.2 348.953 403.55 348.953 402.9C348.953 402.12 346.813 401.6 344.015 401.6C337.431 401.6 337.102 397.7 343.686 397.57C348.13 397.44 348.13 397.44 344.18 396.53C338.09 395.23 337.925 392.5 343.851 392.5C346.649 392.5 348.953 391.85 348.953 391.2C348.953 390.42 345.99 389.9 342.369 389.9H335.785V397.05Z" fill="#FF0000"/>
<path d="M371.996 397.05C371.996 403.94 372.161 404.2 376.605 404.2C382.86 404.2 388.456 400.82 388.456 397.05C388.456 393.28 382.86 389.9 376.605 389.9C372.161 389.9 371.996 390.16 371.996 397.05ZM384.012 395.36C386.152 397.96 383.024 401.6 378.415 401.6C375.946 401.6 375.288 400.69 375.288 396.92C375.288 392.89 375.782 392.37 378.745 392.76C380.72 393.02 383.189 394.06 384.012 395.36Z" fill="white"/>
<path d="M400.308 396.53C396.686 403.42 396.686 406.02 400.308 403.16C401.46 402.25 403.764 401.6 405.74 401.6C407.715 401.6 410.019 402.25 411.171 403.16C414.628 405.89 414.957 403.29 411.83 396.92C407.55 388.34 404.752 388.34 400.308 396.53ZM408.209 397.18C408.209 398.22 407.056 399 405.74 399C402.941 399 402.777 398.74 404.258 395.88C405.41 393.54 408.209 394.32 408.209 397.18Z" fill="black"/>
<path d="M426.315 392.5C424.505 393.93 423.023 396.01 423.023 397.05C423.023 399.52 428.784 404.2 431.912 404.2C436.521 404.2 439.483 402.64 439.483 400.17C439.483 398.87 438.825 397.7 437.837 397.7C437.014 397.7 436.191 398.61 436.191 399.78C436.191 401.08 435.039 401.6 432.57 401.34C429.607 401.08 428.784 400.04 428.784 397.05C428.784 393.8 429.443 393.15 432.899 392.89C439.977 392.63 440.306 392.5 437.837 391.2C433.887 389.25 429.937 389.64 426.315 392.5Z" fill="black"/>
<path d="M451.004 397.05V404.2H457.588C461.209 404.2 464.172 403.55 464.172 402.9C464.172 402.12 462.032 401.6 459.234 401.6C452.815 401.6 452.485 398.09 458.905 397.31L463.349 396.79L458.905 396.53C452.321 396.27 452.815 392.5 459.234 392.5C462.032 392.5 464.172 391.85 464.172 391.2C464.172 390.42 461.209 389.9 457.588 389.9H451.004V397.05Z" fill="black"/>
<path d="M476.024 391.46C472.732 394.06 473.72 396.01 478.987 397.7C484.583 399.52 483.925 402.25 477.999 401.08C473.226 400.04 472.732 402.38 477.341 403.55C486.065 405.76 491.168 399.13 483.102 396.14C477.67 394.19 477.835 391.98 483.102 392.89C485.736 393.28 487.052 392.89 486.723 391.98C485.9 389.9 478.493 389.51 476.024 391.46Z" fill="black"/>
<path d="M495.447 391.2C495.447 391.85 496.599 392.5 497.916 392.5C499.727 392.5 500.385 394.06 500.385 398.35C500.385 402.64 501.044 404.2 502.854 404.2C504.665 404.2 505.323 402.64 505.323 398.35C505.323 394.06 505.982 392.5 507.792 392.5C509.109 392.5 510.261 391.85 510.261 391.2C510.261 390.42 506.969 389.9 502.854 389.9C498.739 389.9 495.447 390.42 495.447 391.2Z" fill="black"/>
<path d="M521.946 396.53C519.806 400.17 518.819 403.55 519.477 403.94C520.135 404.46 520.958 404.07 521.288 403.16C522.275 401.21 530.341 401.08 532.974 403.16C536.595 406.02 536.595 403.29 533.139 396.66C531.164 392.89 528.695 389.9 527.542 389.9C526.39 389.9 523.921 392.89 521.946 396.53ZM530.011 397.96C530.011 398.61 528.859 399 527.542 399C525.073 399 524.25 396.27 526.226 394.71C527.378 393.8 530.011 396.14 530.011 397.96Z" fill="black"/>
<path d="M546.473 397.05C546.473 400.95 547.296 404.2 548.119 404.2C549.106 404.2 549.765 401.99 549.765 399.39V394.45L554.209 399.39C556.513 401.99 559.147 404.2 559.97 404.2C560.628 404.2 561.287 400.95 561.287 397.05C561.287 393.15 560.628 389.9 559.641 389.9C558.818 389.9 557.995 391.85 557.995 394.06L557.83 398.35L553.386 394.06C550.917 391.72 548.448 389.9 547.789 389.9C546.966 389.9 546.473 393.15 546.473 397.05Z" fill="#FF0000"/>
</svg>
