<svg width="217" height="202" viewBox="0 0 217 202" fill="none" xmlns="http://www.w3.org/2000/svg">
<path d="M10.6496 62.6547C10.4264 62.6547 10.2 62.6128 9.98327 62.5238C9.14668 62.1796 8.76594 61.2673 9.13492 60.4865C9.58125 59.5418 10.0413 58.6047 10.5182 57.6762C10.9138 56.9054 11.9011 56.5782 12.7271 56.9478C13.5516 57.3158 13.9012 58.2394 13.5064 59.0082C13.0453 59.9098 12.5977 60.8176 12.1666 61.7323C11.8927 62.3109 11.2856 62.6547 10.6496 62.6547ZM7.43143 70.3289C7.2524 70.3289 7.07127 70.302 6.89246 70.2442C6.02748 69.9666 5.56825 69.0873 5.86471 68.2804C6.35105 66.9615 6.87183 65.6391 7.41291 64.3513C7.74596 63.5544 8.70791 63.1617 9.55869 63.4759C10.4103 63.7858 10.8303 64.6836 10.4965 65.4782C9.97251 66.7259 9.46814 68.0075 8.99798 69.2856C8.76141 69.9266 8.11948 70.3289 7.43143 70.3289ZM3.91664 82.2421C3.80354 82.2421 3.69026 82.2313 3.57583 82.209C2.67993 82.0342 2.1068 81.215 2.29403 80.38C2.90231 77.6628 3.6427 74.9333 4.4948 72.2657C4.75645 71.4477 5.6783 70.9841 6.55486 71.2274C7.43143 71.4708 7.92915 72.3323 7.66861 73.1493C6.84279 75.7344 6.12578 78.3796 5.53521 81.0129C5.37198 81.7412 4.68331 82.2421 3.91664 82.2421ZM1.65594 102.705C0.741508 102.705 0 102.013 0 101.16C0 95.5732 0.493392 89.9667 1.46743 84.4954C1.61696 83.6519 2.46774 83.0825 3.37251 83.2234C4.27354 83.3624 4.88375 84.1593 4.7336 85.0005C3.79046 90.3059 3.31208 95.7422 3.31208 101.16C3.31208 102.013 2.56987 102.705 1.65594 102.705Z" fill="#45B29A"/>
<path d="M108.191 201.971C48.5348 201.971 0 157.04 0 100.832H3.31209C3.31209 154.73 50.3613 198.88 108.191 198.88C137.035 198.88 163.921 188.259 183.893 168.824L186.284 170.923C165.68 190.971 137.947 201.971 108.191 201.971Z" fill="#45B29A"/>
<path d="M177.186 166.515L192.823 161.562L189.602 176.677L177.186 166.515Z" fill="#45B29A"/>
<path d="M213.285 119.117C213.195 119.117 213.104 119.111 213.011 119.097C212.11 118.957 211.5 118.161 211.65 117.319C212.592 112.018 213.071 106.582 213.071 101.16C213.071 100.307 213.813 99.6147 214.727 99.6147C215.641 99.6147 216.382 100.307 216.382 101.16C216.382 106.751 215.89 112.357 214.916 117.825C214.782 118.582 214.079 119.117 213.285 119.117ZM210.303 131.157C210.146 131.157 209.987 131.137 209.829 131.093C208.953 130.849 208.455 129.988 208.715 129.17C209.541 126.585 210.258 123.941 210.849 121.306C211.035 120.471 211.917 119.938 212.808 120.111C213.704 120.285 214.277 121.104 214.09 121.94C213.481 124.657 212.741 127.386 211.889 130.053C211.675 130.725 211.016 131.157 210.303 131.157ZM207.428 138.953C207.227 138.953 207.024 138.918 206.825 138.846C205.973 138.535 205.553 137.639 205.885 136.844C206.418 135.574 206.923 134.293 207.385 133.035C207.682 132.228 208.626 131.799 209.49 132.076C210.355 132.354 210.814 133.233 210.518 134.04C210.039 135.337 209.518 136.659 208.971 137.969C208.715 138.579 208.09 138.953 207.428 138.953ZM204.583 145.104C204.346 145.104 204.106 145.056 203.877 144.956C203.051 144.592 202.696 143.671 203.086 142.899C203.472 142.133 203.849 141.363 204.216 140.587C204.585 139.806 205.56 139.453 206.4 139.797C207.236 140.142 207.616 141.054 207.246 141.835C206.869 142.634 206.48 143.429 206.081 144.217C205.799 144.776 205.204 145.104 204.583 145.104Z" fill="#45B29A"/>
<path d="M216.383 100.832H213.071C213.071 46.5488 166.022 3.11185 108.191 3.11185C79.3853 3.11185 52.5249 13.8734 32.5591 33.2641L30.1699 31.1632C50.7665 11.1596 78.4753 -2.12796e-06 108.191 -2.12796e-06C167.848 -2.12796e-06 216.383 44.6239 216.383 100.832Z" fill="#45B29A"/>
<path d="M39.2623 35.744L23.6211 40.6826L26.8576 25.5693L39.2623 35.744Z" fill="#45B29A"/>
<path fill-rule="evenodd" clip-rule="evenodd" d="M45.9727 119.244C46.916 116.795 48.8956 115.25 51.4465 114.631C54.6248 113.86 57.9001 113.397 61.1601 112.988C62.2276 112.854 62.5308 112.582 62.6826 111.645C64.1032 102.902 67.7151 94.982 73.1308 87.7542C73.203 87.6588 73.3148 87.5872 73.5651 87.3669C73.9211 89.33 74.2272 91.1725 74.5914 93.0059C76.1202 100.719 78.2289 108.263 82.2503 115.228C84.8441 119.721 88.2608 123.489 92.8656 126.362C98.1617 129.665 102.969 133.552 107.421 137.809C107.788 138.161 108.134 138.529 108.744 139.148C105.349 140.136 102.179 141.113 98.9743 141.972C97.01 142.498 96.9968 142.417 97.1865 144.38C97.4938 147.555 97.4517 150.721 96.5583 153.821C96.2972 154.725 95.9189 155.627 95.4206 156.439C94.0989 158.599 92.0191 159.65 89.4208 159.095C86.7808 158.533 84.0897 157.874 81.6637 156.787C76.3338 154.399 74.4429 150.06 76.034 144.748C76.1515 144.358 76.2823 143.971 76.4308 143.502C73.9405 143.165 71.5167 142.671 69.0739 142.554C66.5518 142.433 65.3259 141.34 64.8367 139.112C64.3676 136.983 63.6722 134.9 63.1161 132.934C61.3791 133.25 59.6738 133.705 57.9388 133.844C54.3592 134.132 51.647 132.593 49.5812 129.962C47.8846 127.8 46.9218 125.337 46.2672 122.753C46.1983 122.484 46.0729 122.226 45.9727 121.963C45.9727 121.057 45.9727 120.15 45.9727 119.244Z" fill="#45B29A"/>
<path fill-rule="evenodd" clip-rule="evenodd" d="M85.3132 44.6613C85.5789 46.1754 85.8041 47.6326 86.0929 49.0786C86.4649 50.9373 86.5718 50.9793 88.5881 50.4087C88.0188 48.3945 87.4479 46.3791 86.8523 44.2701C86.3507 44.3979 85.901 44.5127 85.3132 44.6613ZM84.1351 50.9308C83.7532 48.9477 83.3996 47.1117 83.0288 45.1856C82.1782 45.4482 81.4506 45.6183 80.7799 45.9063C80.4944 46.0299 80.1504 46.3941 80.1417 46.6586C80.0836 48.3321 80.1116 50.0091 80.1116 51.8174C81.5174 51.5075 82.7788 51.2299 84.1351 50.9308ZM77.8284 47.2876C77.703 47.2253 77.5776 47.1637 77.4526 47.1025C76.4181 47.7696 74.7446 48.2686 74.4793 49.1402C73.9307 50.9462 74.1312 52.9496 74.0169 54.9939C75.2705 54.2405 76.2861 53.6657 77.2522 53.027C77.5186 52.8499 77.7938 52.4857 77.802 52.1997C77.8536 50.5639 77.8284 48.9258 77.8284 47.2876ZM88.5056 58.018C88.0852 57.9202 87.6715 57.7893 87.2445 57.7362C86.8605 57.6877 86.4658 57.7258 85.9807 57.7258C86.1469 58.356 86.2999 58.9385 86.4629 59.5622C84.631 59.9629 82.8089 60.3602 80.8921 60.7799C80.7019 59.7346 80.5072 58.6667 80.3141 57.6003C82.104 57.6014 83.8918 57.6014 85.8623 57.6014C85.432 56.0245 85.0397 54.5866 84.6128 53.0251C83.3006 53.3446 82.1374 53.561 81.0364 53.9356C80.6982 54.0503 80.3509 54.5804 80.3162 54.9458C80.2333 55.832 80.3315 56.7341 80.3554 57.6303C79.648 57.7523 78.9385 57.8752 78.231 57.9945C78.146 57.0852 78.0586 56.1785 77.9344 54.8803C76.5171 56.115 75.3873 57.099 74.2562 58.0842C75.0981 58.2563 75.7008 58.1516 76.308 58.0904C76.9568 58.0257 77.609 58.0026 78.2603 57.9625C78.8877 60.4892 78.6217 62.6605 75.782 63.9868C75.1748 64.2705 74.7813 64.9524 74.0784 65.6638C74.0784 63.1364 74.0784 60.8958 74.0784 58.5843C73.1457 58.6574 72.3471 58.7202 71.5469 58.7833H71.5535C71.6814 56.0465 72.0138 53.3007 71.8744 50.5758C71.7614 48.3833 72.7567 47.201 74.641 46.192C78.4286 44.1643 82.5008 42.9469 86.7376 42.1134C87.0226 42.0572 87.294 41.9344 87.5725 41.8428C88.013 41.8428 88.4548 41.8428 88.8962 41.8428C89.9914 45.7207 90.9995 49.6237 92.2197 53.4675C92.8244 55.3743 93.8206 57.1745 94.6931 59.1406C93.8177 58.9446 93.0352 58.7683 92.1261 58.5643C92.2143 58.9747 92.2704 59.2334 92.3265 59.4948C89.4093 60.0099 88.8607 59.7928 88.4672 57.9856C89.557 58.0992 90.6514 58.2151 91.8221 58.3398C91.2029 56.9119 90.6101 55.5937 90.0582 54.2605C89.3293 52.5 89.185 52.4253 86.9113 53.0089C87.4426 54.6782 87.9738 56.3475 88.5056 58.018Z" fill="#45B29A"/>
<path fill-rule="evenodd" clip-rule="evenodd" d="M119.491 150.031C125.383 145.71 130.9 140.978 135.955 135.379C133.645 133.156 131.391 130.983 129.343 129.011C124.357 133.824 119.714 138.304 115.112 142.745C116.461 144.989 117.922 147.421 119.491 150.031ZM137.59 112.394C135.911 117.89 133.381 122.706 130.352 126.875C132.706 129.236 134.973 131.512 137.404 133.952C139.625 130.881 141.791 127.885 144.023 124.796C144.304 125.559 144.588 126.334 144.873 127.109C144.996 127.148 145.118 127.187 145.241 127.225C146.973 123.697 148.702 120.17 150.494 116.518C154.571 120.503 156.712 125.34 157.169 130.904C157.28 130.881 157.391 130.858 157.503 130.834C157.672 128.783 157.84 126.731 158.039 124.319C159.201 127.442 159.514 130.321 159.474 133.234C159.453 134.711 159.235 136.187 159.09 137.663C159.017 138.406 158.66 138.977 157.761 138.868C156.863 138.758 156.708 138.132 156.809 137.387C156.977 136.167 157.111 134.944 157.115 133.699C156.231 136.843 155.349 139.986 154.441 143.218C152.314 142.659 150.83 141.552 149.561 140.169C147.054 137.433 146.052 134.143 145.581 130.656C145.45 129.69 145.23 128.735 145.003 127.518C142.837 130.369 140.842 132.998 138.791 135.697C141.024 138.648 142.934 141.829 143.811 145.45C144.132 146.77 144.273 148.127 144.497 149.467C144.622 150.224 144.426 150.813 143.493 150.88C142.507 150.953 142.231 150.389 142.186 149.563C141.932 145.021 140.043 141.052 137.664 137.877C134.673 140.429 131.674 143.044 128.608 145.587C126.102 147.666 123.544 149.693 120.948 151.673C120.266 152.193 120.069 152.641 120.242 153.439C120.749 155.769 120.711 158.098 119.95 160.398C119.696 161.164 119.295 161.736 118.366 161.462C117.518 161.212 117.491 160.578 117.744 159.846C118.538 157.546 117.805 152.422 117.495 151.688C115.655 146.874 112.381 142.878 108.673 139.017C109.392 138.633 110.017 138.3 110.945 137.804C109.272 136.43 107.718 135.154 106.354 134.033C108.818 129.257 111.126 124.782 113.441 120.295C115.593 120.742 124.052 125.384 126.599 127.566C122.014 131.868 116.548 134.989 110.808 137.943C111.692 138.924 112.508 139.827 113.398 140.815C118.986 136.471 124.008 131.72 128.205 126.012C123.879 122.903 119.233 120.371 114.286 118.195C116.43 113.033 118.538 107.953 120.558 103.085C125.802 104.829 130.964 106.545 136.234 108.299C135.156 114.196 132.569 119.626 129.237 124.795C133.75 120.283 136.294 114.774 138.492 108.963C141.957 110.282 145.069 112.019 147.877 114.222C148.123 114.415 148.261 114.993 148.144 115.286C146.936 118.277 145.666 121.247 144.187 124.214C142.317 120.134 141.032 115.89 137.59 112.394Z" fill="#45B29A"/>
<path fill-rule="evenodd" clip-rule="evenodd" d="M136.291 90.3009C127.936 88.7663 120.332 85.6333 113.509 80.8875C105.414 75.259 99.4521 68.0054 94.875 59.3224C95.4971 59.5045 95.8827 59.5942 96.2482 59.7289C102.137 61.9083 106.975 65.384 110.769 70.1051C111.265 70.7219 111.776 70.9794 112.581 71.1123C115.311 71.5631 118.02 72.1294 120.867 72.6769C121.223 71.5769 121.572 70.3658 122.01 69.1823C123.515 65.0995 125.751 61.4225 129.438 58.7268C130.979 57.6011 132.832 56.8492 134.536 55.9175C135.38 55.4567 136.194 54.9485 137.05 54.5096C137.457 54.3002 138.044 53.9695 138.354 54.0992C139.631 54.6305 140.745 53.9795 141.931 53.8848C143.628 53.7489 145.362 53.5548 147.035 53.7412C149.264 53.9883 150.633 55.4817 150.858 57.5807C150.966 58.597 150.921 59.6434 150.791 60.6587C150.645 61.8059 150.129 62.8716 151.037 64.0385C151.35 64.44 150.909 65.4252 150.677 66.1036C150.388 66.9444 149.86 67.7174 149.608 68.5648C147.856 74.4166 143.765 78.4163 138.162 81.2067C136.614 81.9786 134.975 82.5903 133.49 83.2275C134.409 85.5886 135.331 87.9605 136.253 90.3313L136.291 90.3009Z" fill="#45B29A"/>
<path fill-rule="evenodd" clip-rule="evenodd" d="M139.387 92.9463C142.864 95.6208 146.361 98.3103 149.945 101.068C149.433 99.1245 148.927 97.1103 148.35 95.1138C148.268 94.83 147.874 94.477 147.567 94.4185C144.795 93.8853 142.01 93.4102 139.387 92.9463ZM136.254 90.3315C139.729 90.8836 143.236 91.3001 146.672 92.0146C158.897 94.5544 166.284 102.811 166.764 114.496C166.876 117.237 166.591 119.995 166.408 122.741C166.355 123.522 166.272 124.577 164.985 124.419C163.648 124.254 164.03 123.244 164.156 122.463C164.927 117.718 164.784 113.018 163.318 108.4C161.534 102.778 157.885 98.5883 152.188 96.0166C151.916 95.8938 151.627 95.8029 151.252 95.662C151.664 98.5559 152.063 101.366 152.461 104.177C152.321 104.229 152.181 104.281 152.041 104.334C151.394 103.521 150.747 102.711 150.13 101.936C149.844 105.359 149.562 108.747 149.283 112.11C145.564 110.107 142.142 108.264 138.588 106.35C139.16 100.982 138.165 95.5858 136.293 90.3003C136.292 90.3011 136.254 90.3315 136.254 90.3315Z" fill="#45B29A"/>
<path fill-rule="evenodd" clip-rule="evenodd" d="M89.1666 95.9319C91.364 99.0229 93.3605 102.246 95.8145 105.13C97.3399 106.923 97.5437 108.227 96.4278 110.286C94.2779 114.251 92.7673 118.477 91.9733 123.355C90.4644 121.864 89.0297 120.701 87.9378 119.303C86.3571 117.284 85.0516 115.08 83.5802 112.985C82.6682 111.686 82.6129 110.298 82.8806 108.847C83.7753 103.985 86.2581 99.8067 89.1666 95.9319Z" fill="#45B29A"/>
<path fill-rule="evenodd" clip-rule="evenodd" d="M108.014 94.5244C111.655 97.066 115.036 99.4267 118.565 101.891C116.558 106.749 114.486 111.761 112.383 116.851C112.043 116.714 111.792 116.656 111.593 116.527C107.724 114.042 104.222 111.164 101.102 107.889C100.845 107.618 100.62 107.012 100.768 106.759C103.156 102.644 105.607 98.5625 108.014 94.5244Z" fill="#45B29A"/>
<path fill-rule="evenodd" clip-rule="evenodd" d="M99.4002 109.273C100.16 110.033 100.756 110.756 101.482 111.336C104.457 113.71 107.469 116.045 110.477 118.383C110.904 118.714 111.484 118.875 111.111 119.616C109.016 123.772 106.959 127.944 104.836 132.218C104.367 131.95 104.144 131.85 103.955 131.711C100.948 129.493 97.9296 127.29 94.9662 125.025C94.5805 124.732 94.2258 124.082 94.286 123.648C94.9831 118.625 97.0155 114.008 99.4002 109.273Z" fill="#45B29A"/>
<path fill-rule="evenodd" clip-rule="evenodd" d="M136.632 105.85C131.305 104.589 126.226 103.243 121.488 100.646C122.85 97.0387 124.217 93.4171 125.634 89.6611C126.619 89.971 127.547 90.2967 128.497 90.5578C130.482 91.101 132.486 91.5876 134.465 92.1516C134.867 92.2663 135.411 92.5528 135.518 92.8689C136.941 97.0929 137.119 101.414 136.632 105.85Z" fill="#45B29A"/>
<path fill-rule="evenodd" clip-rule="evenodd" d="M99.1509 84.8181C101.666 87.6304 104.009 90.2506 106.399 92.9232C103.908 96.9632 101.365 101.089 98.74 105.348C98.019 104.452 97.2286 103.592 96.5839 102.645C94.7887 100.006 93.0327 97.3436 91.3196 94.6571C91.1047 94.3187 91.0312 93.6127 91.2569 93.3621C93.8564 90.472 96.527 87.6377 99.1509 84.8181Z" fill="#45B29A"/>
<path fill-rule="evenodd" clip-rule="evenodd" d="M80.8925 107.043C78.7335 101.419 77.4543 96.0092 76.4672 90.5324C76.4029 90.1794 76.3818 89.7567 76.5283 89.4429C77.9873 86.3134 80.0832 83.6189 82.8506 81.3853C84.1776 84.5606 85.2711 87.7413 86.8279 90.7107C87.9008 92.7553 87.8389 94.1971 86.3449 96.0566C83.8072 99.218 82.0582 102.827 80.8925 107.043Z" fill="#45B29A"/>
<path fill-rule="evenodd" clip-rule="evenodd" d="M71.5466 58.7834C71.6328 60.9559 71.7236 63.1283 71.8032 65.3019C71.8573 66.7406 71.9369 68.1804 71.9047 69.6184C71.8973 69.9321 71.4823 70.4907 71.2191 70.51C66.8248 70.8249 62.5467 70.4634 58.8809 67.8929C57.6821 67.0513 56.7441 65.8863 55.5215 64.711C56.4422 64.2563 57.0201 63.8879 57.6562 63.6677C62.0658 62.1405 66.4882 60.646 70.904 59.1326C71.135 59.0533 71.3375 58.9024 71.5532 58.7834H71.5466Z" fill="#45B29A"/>
<path fill-rule="evenodd" clip-rule="evenodd" d="M119.352 99.8254C115.894 97.3646 112.69 95.0831 109.371 92.7228C111.389 89.9178 113.268 87.3052 115.1 84.7566C117.755 86.0475 120.293 87.2609 122.798 88.5318C123.057 88.6638 123.321 89.2059 123.234 89.4477C122.026 92.7832 120.759 96.0999 119.352 99.8254Z" fill="#45B29A"/>
<path fill-rule="evenodd" clip-rule="evenodd" d="M97.9152 83.004C95.156 85.8275 92.4587 88.5893 89.7057 91.4089C89.5885 91.2569 89.4012 91.0917 89.3183 90.8896C87.922 87.4763 86.5195 84.0665 85.1855 80.6321C85.0609 80.3076 85.2507 79.61 85.5287 79.4552C88.0161 78.0785 90.5558 76.7857 93.1542 75.4294C94.8417 78.1128 96.3704 80.5459 97.9152 83.004Z" fill="#45B29A"/>
<path fill-rule="evenodd" clip-rule="evenodd" d="M100.912 83.4024C103.009 81.6688 104.884 80.1181 106.783 78.5474C108.981 80.227 111.085 81.8347 113.24 83.4809C111.45 85.9479 109.659 88.4176 107.717 91.0947C105.415 88.4926 103.209 86.0006 100.912 83.4024Z" fill="#45B29A"/>
<path fill-rule="evenodd" clip-rule="evenodd" d="M74.3073 70.7642C74.4228 72.5932 74.5379 74.4234 74.6501 76.2031C76.3364 74.7525 77.9126 73.2885 79.615 71.9641C81.0179 70.8716 82.5879 71.4471 83.0016 73.0779C83.2858 74.1982 83.5403 75.3269 83.8901 76.4295C83.9866 76.7387 84.3727 76.9689 84.6066 77.2153C83.9499 77.5606 83.0973 78.0083 82.123 78.5196C81.6882 76.9731 81.2699 75.4852 80.8496 73.993C76.8516 75.6488 74.302 80.8568 75.5886 84.1753C76.4787 83.4531 77.4877 82.6639 78.4624 81.8369C79.3897 81.05 80.2791 80.225 81.2419 79.4855C79.4112 81.5413 77.5805 83.5971 75.7544 85.6486C75.7078 85.5246 75.6282 85.3094 75.485 84.9191C74.8659 85.6224 74.3086 86.2584 73.4601 87.2251C72.9094 81.5632 72.395 76.2674 71.8633 70.8C72.8091 70.8 73.5768 70.8 74.3461 70.8L74.3073 70.7642Z" fill="#45B29A"/>
<path fill-rule="evenodd" clip-rule="evenodd" d="M157.9 122.997C156.435 120.84 155.276 118.402 153.415 116.594C151.427 114.664 150.965 112.864 151.707 110.394C152.199 108.761 152.173 106.993 152.411 105.01C156.134 110.692 157.74 116.679 157.9 122.997Z" fill="#45B29A"/>
<path fill-rule="evenodd" clip-rule="evenodd" d="M87.1201 61.5757C87.9723 63.7787 88.7152 65.6975 89.4553 67.6071C87.0628 68.4764 84.7416 69.32 82.307 70.2051C81.9428 68.0941 81.5439 66.0013 81.2593 63.8953C81.2143 63.5681 81.6194 62.9524 81.9473 62.8566C83.6093 62.3688 85.3162 62.0084 87.1201 61.5757Z" fill="#45B29A"/>
<path fill-rule="evenodd" clip-rule="evenodd" d="M105.188 77.0128C103.352 78.5174 101.583 79.9673 99.6554 81.5461C98.2752 79.3555 96.9535 77.2527 95.4355 74.8426C97.6519 74.3968 99.6348 73.989 101.624 73.6152C101.784 73.5848 102.039 73.7388 102.172 73.8735C103.173 74.8949 104.155 75.9333 105.188 77.0128Z" fill="#45B29A"/>
<path fill-rule="evenodd" clip-rule="evenodd" d="M74.3474 70.7995C74.3969 68.8227 76.6268 65.7045 78.9682 64.4268C79.3798 66.6935 79.7833 68.922 80.2048 71.2434C78.1469 71.0756 76.2279 70.9193 74.3086 70.7637L74.3474 70.7995Z" fill="#45B29A"/>
<path fill-rule="evenodd" clip-rule="evenodd" d="M89.0319 74.3987C87.2453 73.5155 85.724 72.7636 83.9824 71.9035C86.101 71.1465 88.1586 70.4112 90.3374 69.6323C91.0102 71.0006 91.6236 72.2492 92.2539 73.5332C90.0891 74.5177 87.9825 75.4732 85.877 76.4292C85.8391 76.3784 85.8016 76.3256 85.764 76.2744C86.7169 75.7269 87.6723 75.1795 89.0319 74.3987Z" fill="#45B29A"/>
<path fill-rule="evenodd" clip-rule="evenodd" d="M96.3101 66.3776C94.9397 66.619 93.7031 66.8816 92.4507 67.0244C92.1562 67.0587 91.6311 66.7576 91.5148 66.4943C90.8473 64.9859 90.2707 63.4432 89.6602 61.9048C92.6594 61.1109 94.005 62.0164 96.3101 66.3776Z" fill="#45B29A"/>
<path fill-rule="evenodd" clip-rule="evenodd" d="M92.6348 69.1556C94.3475 68.9131 95.8085 68.6875 97.277 68.5177C97.527 68.4884 97.9078 68.6232 98.0579 68.8053C98.7711 69.6696 99.4245 70.5756 100.178 71.5693C98.1804 72.0244 96.3691 72.4348 94.4555 72.8699C93.883 71.7025 93.3224 70.5594 92.6348 69.1556Z" fill="#45B29A"/>
</svg>
