<svg width="216" height="206" viewBox="0 0 216 206" fill="none" xmlns="http://www.w3.org/2000/svg">
<path d="M10.9618 64.4988C10.7397 64.4988 10.5145 64.4563 10.2989 64.3662C9.46664 64.0179 9.08787 63.0931 9.45494 62.3021C9.89896 61.345 10.3579 60.3948 10.8319 59.4537C11.2254 58.6728 12.2094 58.3448 13.0296 58.7189C13.8499 59.0921 14.1966 60.0278 13.8031 60.8079C13.3438 61.7178 12.8998 62.6372 12.471 63.5643C12.1985 64.1505 11.5945 64.4988 10.9618 64.4988ZM7.76024 72.275C7.58181 72.275 7.40195 72.2473 7.22405 72.1899C6.36404 71.9087 5.90668 71.0179 6.20161 70.1996C6.68544 68.8641 7.20353 67.5243 7.74214 66.2189C8.07425 65.4123 9.03206 65.0172 9.87651 65.3319C10.7237 65.6467 11.1421 66.5551 10.8095 67.3601C10.2882 68.6258 9.78644 69.9231 9.3187 71.2188C9.08335 71.867 8.44474 72.275 7.76024 72.275ZM4.26361 84.3447C4.15108 84.3447 4.03839 84.3345 3.92456 84.3111C3.03328 84.1348 2.46262 83.3048 2.64938 82.4588C3.25451 79.7056 3.99108 76.9398 4.83878 74.238C5.09908 73.4096 6.0149 72.9361 6.8882 73.1853C7.76024 73.4322 8.25539 74.3043 7.9962 75.1335C7.17464 77.7515 6.46134 80.4314 5.87332 83.0989C5.71143 83.838 5.02632 84.3447 4.26361 84.3447ZM2.01457 105.077C1.10487 105.077 0.367188 104.375 0.367188 103.511C0.367188 97.8508 0.858318 92.17 1.82654 86.626C1.9758 85.7726 2.82218 85.1981 3.72229 85.3389C4.61866 85.4804 5.22539 86.2866 5.07663 87.1397C4.13807 92.5144 3.66217 98.0221 3.66217 103.511C3.66217 104.375 2.92379 105.077 2.01457 105.077Z" fill="#45B29A"/>
<path d="M108 205.492C48.6513 205.492 0.367188 159.427 0.367188 102.872H3.66217C3.66217 158.257 50.4684 202.36 108 202.36C136.695 202.36 163.441 191.675 183.31 171.986L185.689 174.073C165.191 194.384 137.601 205.492 108 205.492Z" fill="#45B29A"/>
<path d="M176.637 169.723L192.193 164.705L188.989 180.018L176.637 169.723Z" fill="#45B29A"/>
<path d="M212.55 121.704C212.46 121.704 212.37 121.697 212.277 121.683C211.381 121.541 210.774 120.734 210.924 119.881C211.861 114.511 212.337 109.003 212.337 103.511C212.337 102.646 213.075 101.945 213.984 101.945C214.894 101.945 215.631 102.646 215.631 103.511C215.631 109.174 215.142 114.856 214.173 120.395C214.039 121.161 213.341 121.704 212.55 121.704ZM209.583 133.901C209.427 133.901 209.269 133.881 209.112 133.836C208.24 133.589 207.745 132.717 208.004 131.888C208.825 129.27 209.539 126.59 210.126 123.922C210.313 123.074 211.191 122.527 212.075 122.71C212.966 122.887 213.537 123.716 213.351 124.563C212.745 127.316 212.009 130.081 211.162 132.783C210.948 133.462 210.292 133.901 209.583 133.901ZM206.723 141.797C206.524 141.797 206.321 141.763 206.123 141.69C205.276 141.375 204.858 140.467 205.188 139.662C205.718 138.376 206.22 137.077 206.68 135.802C206.977 134.986 207.914 134.557 208.775 134.831C209.635 135.112 210.092 136.003 209.797 136.822C209.321 138.136 208.803 139.475 208.258 140.801C208.004 141.42 207.382 141.797 206.723 141.797ZM203.893 148.031C203.657 148.031 203.418 147.982 203.191 147.88C202.368 147.512 202.016 146.579 202.404 145.797C202.788 145.022 203.163 144.242 203.527 143.456C203.895 142.664 204.869 142.308 205.699 142.654C206.532 143.003 206.91 143.927 206.543 144.718C206.167 145.528 205.78 146.333 205.384 147.132C205.103 147.699 204.511 148.031 203.893 148.031Z" fill="#45B29A"/>
<path d="M215.632 102.872H212.337C212.337 48.657 165.531 4.02388 107.999 4.02388C79.342 4.02388 52.6204 15.0015 32.7565 34.6465L30.3809 32.5574C50.871 12.2915 78.4367 0.852106 107.999 0.852106C167.348 0.852106 215.632 46.7068 215.632 102.872Z" fill="#45B29A"/>
<path d="M39.4276 37.2366L23.8672 42.24L27.0869 26.9295L39.4276 37.2366Z" fill="#45B29A"/>
<path d="M99.024 128.627C99.024 128.627 89.0504 126.146 82.7041 132.661C82.7041 132.661 77.567 139.175 84.2154 147.553C84.2154 147.553 87.5394 153.139 86.0293 157.792C86.0293 157.792 83.6114 165.238 92.3744 164.927C92.3744 164.927 105.067 164.619 96.6053 151.276C96.6053 151.276 92.072 144.76 96.9082 139.797C96.9082 139.797 107.183 133.28 99.024 128.627Z" fill="#45B29A"/>
<path d="M101.66 118.034C99.7446 117.803 97.9 119.817 97.5385 122.532C97.1769 125.247 98.4359 127.634 100.352 127.865C102.264 128.095 104.11 126.08 104.47 123.365C104.833 120.65 103.573 118.263 101.66 118.034Z" fill="#45B29A"/>
<path d="M94.4833 126.444C95.7633 126.339 96.6694 124.784 96.5064 122.969C96.3411 121.152 95.1719 119.767 93.8924 119.872C92.6129 119.974 91.7076 121.53 91.8705 123.345C92.0338 125.162 93.2038 126.547 94.4833 126.444Z" fill="#45B29A"/>
<path d="M89.4224 127.348C90.4795 127.239 91.2054 125.995 91.0437 124.57C90.8804 123.145 89.8918 122.08 88.8331 122.189C87.7735 122.297 87.0471 123.541 87.2104 124.965C87.3734 126.391 88.3624 127.457 89.4224 127.348Z" fill="#45B29A"/>
<path d="M86.1496 128.952C87.0229 128.683 87.3926 127.459 86.9736 126.218C86.5517 124.975 85.5033 124.188 84.6267 124.453C83.7502 124.72 83.3825 125.945 83.8027 127.186C84.2225 128.429 85.2722 129.218 86.1496 128.952Z" fill="#45B29A"/>
<path d="M83.3293 130.645C83.9896 130.334 84.1315 129.323 83.644 128.384C83.1573 127.448 82.2287 126.94 81.5667 127.249C80.9052 127.558 80.7636 128.57 81.2503 129.507C81.7374 130.447 82.6673 130.954 83.3293 130.645Z" fill="#45B29A"/>
<path d="M99.024 69.1257C99.024 69.1257 89.0504 66.6443 82.7041 73.1599C82.7041 73.1599 77.567 79.6747 84.2154 88.0523C84.2154 88.0523 87.5394 93.6376 86.0293 98.2911C86.0293 98.2911 83.6114 105.737 92.3744 105.426C92.3744 105.426 105.067 105.117 96.6053 91.7752C96.6053 91.7752 92.072 85.2592 96.9082 80.2952C96.9082 80.2952 107.183 73.7793 99.024 69.1257Z" fill="#45B29A"/>
<path d="M101.66 58.5336C99.7446 58.302 97.9 60.3165 97.5385 63.0311C97.1769 65.747 98.4359 68.1332 100.352 68.3649C102.264 68.5935 104.11 66.5793 104.47 63.8647C104.833 61.1492 103.573 58.7626 101.66 58.5336Z" fill="#45B29A"/>
<path d="M94.4833 66.9431C95.7633 66.8381 96.6694 65.2823 96.5064 63.4682C96.3411 61.6518 95.1719 60.2664 93.8924 60.3709C92.6129 60.4727 91.7076 62.0298 91.8705 63.8434C92.0338 65.6606 93.2038 67.0464 94.4833 66.9431Z" fill="#45B29A"/>
<path d="M89.4224 67.8477C90.4795 67.7377 91.2054 66.4939 91.0437 65.0683C90.8804 63.6446 89.8918 62.5795 88.8331 62.6871C87.7735 62.7963 87.0471 64.0402 87.2104 65.4642C87.3734 66.8901 88.3624 67.9557 89.4224 67.8477Z" fill="#45B29A"/>
<path d="M86.1496 69.4511C87.0229 69.182 87.3926 67.9592 86.9736 66.7169C86.5517 65.4743 85.5033 64.6872 84.6267 64.9528C83.7502 65.2196 83.3825 66.4439 83.8027 67.6854C84.2225 68.9284 85.2722 69.7171 86.1496 69.4511Z" fill="#45B29A"/>
<path d="M83.3293 71.1447C83.9896 70.8334 84.1315 69.8224 83.644 68.8832C83.1573 67.9464 82.2287 67.4389 81.5667 67.7478C80.9052 68.0575 80.7636 69.0685 81.2503 70.0069C81.7374 70.9458 82.6673 71.4536 83.3293 71.1447Z" fill="#45B29A"/>
<path d="M115.499 109.207C115.499 109.207 125.472 106.725 131.818 113.24C131.818 113.24 136.955 119.756 130.306 128.134C130.306 128.134 126.983 133.717 128.494 138.371C128.494 138.371 130.911 145.818 122.147 145.507C122.147 145.507 109.455 145.198 117.917 131.857C117.917 131.857 122.449 125.341 117.614 120.376C117.614 120.376 107.339 113.861 115.499 109.207Z" fill="#45B29A"/>
<path d="M112.862 98.6131C114.777 98.383 116.621 100.398 116.983 103.112C117.344 105.828 116.085 108.215 114.171 108.446C112.257 108.675 110.413 106.661 110.05 103.946C109.689 101.23 110.949 98.8436 112.862 98.6131Z" fill="#45B29A"/>
<path d="M120.038 107.024C118.759 106.919 117.854 105.364 118.017 103.548C118.18 101.732 119.349 100.347 120.629 100.451C121.91 100.554 122.815 102.11 122.65 103.924C122.487 105.741 121.318 107.127 120.038 107.024Z" fill="#45B29A"/>
<path d="M125.102 107.929C124.044 107.819 123.318 106.575 123.48 105.15C123.641 103.725 124.631 102.659 125.69 102.768C126.749 102.877 127.475 104.12 127.312 105.545C127.151 106.971 126.161 108.036 125.102 107.929Z" fill="#45B29A"/>
<path d="M128.375 109.531C127.5 109.263 127.13 108.04 127.55 106.797C127.972 105.555 129.021 104.768 129.897 105.034C130.773 105.301 131.142 106.525 130.72 107.765C130.301 109.009 129.251 109.797 128.375 109.531Z" fill="#45B29A"/>
<path d="M131.194 111.224C130.532 110.914 130.391 109.902 130.877 108.964C131.365 108.026 132.295 107.52 132.956 107.829C133.618 108.138 133.759 109.15 133.272 110.087C132.784 111.026 131.856 111.534 131.194 111.224Z" fill="#45B29A"/>
<path d="M115.499 52.8375C115.499 52.8375 125.472 50.3557 131.818 56.8716C131.818 56.8716 136.955 63.3868 130.306 71.764C130.306 71.764 126.983 77.3486 128.494 82.0021C128.494 82.0021 130.911 89.4475 122.147 89.1378C122.147 89.1378 109.455 88.8289 117.917 75.4869C117.917 75.4869 122.449 68.971 117.614 64.0066C117.614 64.0066 107.339 57.4914 115.499 52.8375Z" fill="#45B29A"/>
<path d="M112.862 42.2441C114.777 42.0136 116.621 44.0277 116.983 46.7428C117.344 49.4586 116.085 51.8448 114.171 52.0761C112.257 52.3059 110.413 50.2917 110.05 47.5767C109.689 44.8612 110.949 42.4746 112.862 42.2441Z" fill="#45B29A"/>
<path d="M120.038 50.6539C118.759 50.5502 117.854 48.9943 118.017 47.1787C118.18 45.3635 119.349 43.9781 120.629 44.0822C121.91 44.1848 122.815 45.7406 122.65 47.5551C122.487 49.3715 121.318 50.7581 120.038 50.6539Z" fill="#45B29A"/>
<path d="M125.102 51.5598C124.044 51.449 123.318 50.2055 123.48 48.7807C123.641 47.3551 124.631 46.29 125.69 46.3992C126.749 46.5076 127.475 47.751 127.312 49.1747C127.151 50.6014 126.161 51.6666 125.102 51.5598Z" fill="#45B29A"/>
<path d="M128.375 53.162C127.5 52.894 127.13 51.6709 127.55 50.4278C127.972 49.1864 129.021 48.3985 129.897 48.6645C130.773 48.9313 131.142 50.1556 130.72 51.3963C130.301 52.6401 129.251 53.428 128.375 53.162Z" fill="#45B29A"/>
<path d="M131.194 54.8551C130.532 54.5454 130.391 53.5329 130.877 52.5953C131.365 51.6576 132.295 51.1506 132.956 51.4595C133.618 51.7684 133.759 52.7809 133.272 53.7174C132.784 54.6566 131.856 55.1652 131.194 54.8551Z" fill="#45B29A"/>
</svg>
