<svg width="216" height="206" viewBox="0 0 216 206" fill="none" xmlns="http://www.w3.org/2000/svg">
<path d="M103.973 163.665L105.157 42.0203C105.157 42.0203 122.433 41.4082 124.803 50.27C124.803 50.27 137.013 47.7892 131.963 61.7774C131.963 61.7774 142.899 54.8654 150.425 66.8958C150.425 66.8958 163.381 65.4628 162.162 78.4478C162.162 78.4478 178.592 92.4706 161.994 108.253C161.994 108.253 145.394 127.155 125.866 114.228C125.866 114.228 121.62 121.724 111.997 119.552L113.283 163.779L103.973 163.665Z" fill="#45B29A"/>
<path d="M105.217 163.15L98.6661 163.086L102.383 117.7C102.383 117.7 93.1155 116.343 87.9753 111.614C87.9753 111.614 78.6836 112.667 73.5578 106.466C73.5578 106.466 77.8935 109.723 83.0846 109.254C83.0846 109.254 73.9981 101.293 70.0106 95.542C70.0106 95.542 57.5617 95.2348 50.5483 86.5882C50.5483 86.5882 61.8233 95.1655 68.9329 93.9347C68.9329 93.9347 61.9945 88.5205 60.4552 78.3681C60.4552 78.3681 63.2951 85.7153 65.7386 87.039C65.7386 87.039 62.9118 78.392 64.9086 69.5727C64.9086 69.5727 62.3663 87.7875 76.1776 99.0998C76.1776 99.0998 72.3237 93.0403 74.6006 83.4449C74.6006 83.4449 71.1532 101.088 92.8903 111.437C92.8903 111.437 83.6637 105.888 84.0651 92.6351C84.0651 92.6351 85.3454 101.355 88.8658 104.248C88.8658 104.248 86.0205 97.462 87.9167 89.5528C87.9167 89.5528 87.9725 111.909 102.689 114.392L103.582 106.775C103.582 106.775 95.4886 96.9053 94.4703 89.3571C94.4703 89.3571 78.1918 79.0605 78.4398 67.6251C78.4398 67.6251 82.0513 75.1981 84.4877 77.3019C84.4877 77.3019 81.8264 70.258 84.0354 67.6795C84.0354 67.6795 83.8913 82.4948 93.6916 85.1897C93.6916 85.1897 85.9079 71.5965 88.2808 52.1244C88.2808 52.1244 88.1847 62.0006 91.1269 68.2684C91.1269 68.2684 90.4068 58.1235 95.9514 49.3388C95.9514 49.3388 88.2649 71.6194 97.3119 86.7852C97.3119 86.7852 98.9384 79.002 99.5424 73.0291C99.5424 73.0291 100.826 81.3604 98.5542 90.4365C98.5542 90.4365 99.0379 96.8718 106.334 104.482L105.217 163.15Z" fill="#45B29A"/>
<path d="M11.8973 63.6016C11.6769 63.5994 11.4535 63.5545 11.24 63.4623C10.416 63.1073 10.0485 62.1826 10.4206 61.3987C10.8712 60.4493 11.3372 59.5074 11.8175 58.575C12.2154 57.8011 13.197 57.4835 14.0093 57.864C14.821 58.2437 15.1563 59.179 14.7574 59.9521C14.2925 60.8544 13.8422 61.7657 13.4065 62.685C13.1304 63.2658 12.5266 63.6077 11.8973 63.6016ZM8.63975 71.3148C8.46271 71.3131 8.28385 71.2842 8.10756 71.2254C7.25489 70.9373 6.80937 70.0452 7.11048 69.2331C7.60438 67.9076 8.13238 66.5782 8.68013 65.2828C9.0178 64.4831 9.97375 64.0988 10.8103 64.4201C11.6499 64.7418 12.0565 65.6509 11.7185 66.4499C11.1881 67.7051 10.6762 68.9923 10.1989 70.2783C9.95897 70.9217 9.3197 71.3215 8.63975 71.3148ZM5.04688 83.3028C4.93503 83.3017 4.8231 83.2905 4.71017 83.2661C3.82588 83.0819 3.26665 82.2497 3.4605 81.4093C4.08824 78.6721 4.84773 75.9249 5.7161 73.2418C5.98337 72.4196 6.89866 71.9588 7.76407 72.2131C8.62854 72.4674 9.1123 73.3409 8.84612 74.1646C8.00455 76.7637 7.26951 79.4261 6.65912 82.0775C6.49103 82.8121 5.80507 83.3101 5.04688 83.3028ZM2.60982 103.93C1.70596 103.921 0.979456 103.215 0.987836 102.354C1.04268 96.7172 1.58596 91.0634 2.60217 85.5514C2.7588 84.7032 3.60256 84.1384 4.49865 84.2874C5.38882 84.4374 5.98447 85.2459 5.828 86.0944C4.84292 91.4381 4.31647 96.9192 4.26327 102.386C4.25489 103.247 3.51409 103.939 2.60982 103.93Z" fill="#45B29A"/>
<path d="M106.995 204.874C47.998 204.3 0.447351 157.857 0.99544 101.528L4.2709 101.56C3.73415 156.723 49.8343 201.197 107.025 201.754C135.55 202.031 162.242 191.696 182.184 172.277L184.528 174.355C163.955 194.387 136.421 205.16 106.995 204.874Z" fill="#45B29A"/>
<path d="M175.572 170.006L191.085 165.159L187.752 180.38L175.572 170.006Z" fill="#45B29A"/>
<path d="M211.738 122.528C211.649 122.527 211.56 122.518 211.468 122.504C210.578 122.354 209.982 121.544 210.139 120.696C211.123 115.356 211.649 109.875 211.702 104.404C211.711 103.544 212.451 102.852 213.356 102.861C214.26 102.87 214.986 103.576 214.978 104.436C214.923 110.078 214.381 115.731 213.364 121.239C213.223 122 212.524 122.535 211.738 122.528ZM208.671 134.647C208.516 134.645 208.359 134.623 208.203 134.577C207.338 134.323 206.854 133.449 207.12 132.626C207.962 130.027 208.697 127.365 209.307 124.713C209.501 123.87 210.378 123.335 211.256 123.524C212.141 123.709 212.7 124.541 212.506 125.382C211.878 128.118 211.119 130.866 210.25 133.548C210.031 134.222 209.376 134.654 208.671 134.647ZM205.751 142.484C205.553 142.482 205.352 142.445 205.156 142.372C204.317 142.049 203.909 141.141 204.246 140.342C204.785 139.066 205.297 137.777 205.767 136.513C206.068 135.702 207.005 135.283 207.858 135.565C208.711 135.854 209.156 136.745 208.855 137.558C208.369 138.862 207.841 140.191 207.286 141.507C207.028 142.121 206.406 142.49 205.751 142.484ZM202.877 148.664C202.643 148.662 202.406 148.612 202.181 148.508C201.367 148.134 201.025 147.201 201.419 146.425C201.808 145.657 202.188 144.884 202.558 144.105C202.932 143.32 203.904 142.975 204.725 143.327C205.549 143.682 205.916 144.607 205.544 145.391C205.162 146.195 204.77 146.992 204.368 147.784C204.083 148.346 203.491 148.67 202.877 148.664Z" fill="#45B29A"/>
<path d="M214.986 103.61L211.71 103.578C212.236 49.5798 166.139 4.76782 108.948 4.21135C80.4602 3.93416 53.79 14.6571 33.8534 34.0317L31.5118 31.9514C52.077 11.9644 79.5907 0.755056 108.979 1.041C167.975 1.61505 215.53 47.6693 214.986 103.61Z" fill="#45B29A"/>
<path d="M40.4589 36.7228L24.9414 41.5557L28.2905 26.3376L40.4589 36.7228Z" fill="#45B29A"/>
</svg>
