<svg width="264" height="247" viewBox="0 0 264 247" fill="none" xmlns="http://www.w3.org/2000/svg">
<path d="M89.7972 142.361L91.359 140.783C92.4414 139.769 93.5192 138.752 94.68 137.82C95.8024 136.847 97.0222 135.98 98.2184 135.097C99.4522 134.255 100.681 133.411 101.977 132.662C103.236 131.861 104.586 131.199 105.895 130.482C107.255 129.85 108.58 129.154 109.976 128.606L112.052 127.753C112.75 127.482 113.462 127.247 114.167 126.993C115.568 126.466 117.013 126.065 118.445 125.636C119.874 125.196 121.344 124.9 122.79 124.526C124.249 124.206 125.72 123.944 127.183 123.652L127.235 123.641L127.315 123.631C128.771 123.447 130.485 123.026 132.046 122.543C133.636 122.052 135.206 121.468 136.729 120.784C138.262 120.116 139.749 119.35 141.195 118.519C142.635 117.679 144.052 116.793 145.391 115.806C146.075 115.331 146.737 114.827 147.38 114.301C148.041 113.795 148.674 113.259 149.291 112.705C149.925 112.167 150.537 111.607 151.123 111.022C151.722 110.449 152.322 109.877 152.874 109.261C154.03 108.074 155.083 106.803 156.14 105.532C157.142 104.224 158.152 102.916 159.053 101.538C160.014 100.195 160.809 98.7573 161.671 97.3536C162.44 95.9057 163.277 94.484 163.952 92.9887C164.301 92.2472 164.672 91.5115 165.006 90.763L165.958 88.4959C166.631 86.9956 167.116 85.4321 167.7 83.8983C168.239 82.3511 168.69 80.7773 169.19 79.2158L170.432 74.4642L171.461 69.6627L172.296 64.8226C172.296 64.8226 156.621 77.5634 130.97 80.2298C80.2532 85.5026 79.5908 120.851 79.5908 120.851C79.257 132.091 81.7151 140.712 85.6046 147.33C86.4544 146.184 87.3664 145.078 88.3077 143.997C88.8048 143.452 89.2874 142.895 89.7972 142.361Z" fill="#45B29A"/>
<path d="M172.296 64.8225L171.683 69.6949L170.874 74.5457L169.846 79.3665C169.417 80.9542 169.035 82.5581 168.565 84.1388C168.048 85.7076 167.629 87.3073 167.019 88.8511L166.16 91.1856C165.856 91.9571 165.516 92.7167 165.195 93.4848C164.579 95.0301 163.797 96.5104 163.077 98.0195C162.267 99.4855 161.519 100.989 160.598 102.405C159.74 103.855 158.765 105.24 157.793 106.631C156.764 107.985 155.735 109.344 154.592 110.624C154.047 111.285 153.451 111.905 152.856 112.527C152.274 113.161 151.662 113.769 151.026 114.358C150.409 114.962 149.771 115.55 149.103 116.109C148.454 116.687 147.785 117.244 147.087 117.774C145.725 118.867 144.273 119.864 142.787 120.816C141.293 121.76 139.748 122.637 138.141 123.418C136.543 124.215 134.884 124.914 133.176 125.518C131.438 126.121 129.778 126.632 127.776 126.971L127.907 126.95C126.522 127.287 125.129 127.592 123.755 127.952C122.398 128.365 121.014 128.699 119.684 129.171C118.348 129.631 117.003 130.061 115.713 130.611C115.062 130.876 114.404 131.122 113.762 131.402L111.859 132.277C110.579 132.838 109.381 133.54 108.148 134.172C106.966 134.889 105.746 135.545 104.621 136.332C103.459 137.069 102.369 137.892 101.273 138.705C100.215 139.561 99.1367 140.393 98.1553 141.323C97.1352 142.214 96.1988 143.182 95.2575 144.138L93.9062 145.628C93.4669 146.132 93.0527 146.656 92.6245 147.167C91.7946 148.209 90.9914 149.27 90.2539 150.371C89.8282 150.989 89.4235 151.62 89.0312 152.258C101.775 167.833 122.866 169.034 122.866 169.034C171.058 168.43 174.068 128.455 174.068 128.455C178.187 97.1421 172.296 64.8225 172.296 64.8225Z" fill="#45B29A"/>
<path d="M91.0491 149.489C90.1651 150.662 89.3327 151.871 88.5588 153.112C87.7693 154.344 87.0483 155.615 86.368 156.905C85.6866 158.195 85.0646 159.513 84.492 160.853C83.9186 162.193 83.4096 163.56 82.9513 164.951C82.4976 166.367 82.1053 167.712 81.8021 169.322C81.7947 169.364 81.7848 169.419 81.7794 169.462C81.5459 171.155 82.8276 172.706 84.6417 172.924C86.4576 173.141 88.1179 171.946 88.3518 170.252L88.3592 170.196C88.5089 169.108 88.8109 167.792 89.145 166.579C89.4923 165.344 89.8858 164.111 90.3441 162.894C90.7999 161.677 91.3036 160.471 91.8617 159.288C92.4206 158.104 93.0167 156.931 93.6775 155.792C93.9576 155.295 94.2521 154.805 94.552 154.318C93.322 152.815 92.1723 151.174 91.1246 149.391C91.1011 149.424 91.0738 149.455 91.0491 149.489Z" fill="#45B29A"/>
<path d="M34.4582 84.7348C34.235 84.7348 34.0086 84.6924 33.7919 84.6027C32.9553 84.2585 32.5745 83.3469 32.943 82.5661C33.3894 81.6202 33.8499 80.6847 34.3263 79.755C34.7213 78.9842 35.7086 78.6581 36.5357 79.0273C37.3607 79.3958 37.7098 80.3182 37.315 81.0882C36.8539 81.9887 36.4063 82.8964 35.9747 83.8119C35.7013 84.3894 35.0942 84.7348 34.4582 84.7348ZM31.24 92.4091C31.0607 92.4091 30.8799 92.381 30.7011 92.3248C29.8361 92.0468 29.3768 91.1675 29.6733 90.3602C30.1596 89.0401 30.6804 87.718 31.2215 86.4299C31.5546 85.6341 32.5184 85.2426 33.3668 85.5548C34.2189 85.8658 34.6389 86.7621 34.3051 87.5571C33.7811 88.8056 33.2762 90.0868 32.8066 91.3646C32.5705 92.0064 31.9276 92.4091 31.24 92.4091ZM27.7252 104.322C27.6121 104.322 27.4989 104.311 27.3844 104.288C26.4885 104.114 25.9149 103.295 26.1026 102.459C26.7104 99.7423 27.4513 97.0135 28.3029 94.3459C28.565 93.5271 29.4869 93.0651 30.3635 93.3065C31.24 93.5502 31.7377 94.4114 31.4767 95.2295C30.6514 97.8143 29.9344 100.459 29.3433 103.093C29.1806 103.821 28.4919 104.322 27.7252 104.322ZM25.4645 124.785C24.5501 124.785 23.8086 124.093 23.8086 123.239C23.8086 117.653 24.3023 112.046 25.2755 106.574C25.4256 105.732 26.2751 105.166 27.1806 105.303C28.0821 105.442 28.6923 106.238 28.5425 107.081C27.5991 112.386 27.1207 117.822 27.1207 123.239C27.1207 124.093 26.3785 124.785 25.4645 124.785Z" fill="#45B29A"/>
<path d="M132 224.193C72.3433 224.193 23.8086 179.019 23.8086 123.196H27.1207C27.1207 176.709 74.1699 221.102 132 221.102C160.844 221.102 187.729 210.41 207.701 190.976L210.092 193.109C189.488 213.158 161.755 224.193 132 224.193Z" fill="#45B29A"/>
<path d="M200.994 188.595L216.631 183.642L213.411 198.757L200.994 188.595Z" fill="#45B29A"/>
<path d="M237.094 141.197C237.004 141.197 236.913 141.19 236.82 141.176C235.919 141.037 235.308 140.24 235.458 139.399C236.401 134.099 236.88 128.661 236.88 123.239C236.88 122.386 237.621 121.694 238.536 121.694C239.449 121.694 240.191 122.386 240.191 123.239C240.191 128.831 239.699 134.437 238.725 139.904C238.59 140.661 237.889 141.197 237.094 141.197ZM234.112 153.237C233.954 153.237 233.796 153.217 233.638 153.172C232.761 152.929 232.263 152.067 232.524 151.25C233.349 148.665 234.067 146.02 234.657 143.387C234.844 142.551 235.729 142.017 236.616 142.19C237.512 142.365 238.086 143.184 237.898 144.02C237.29 146.737 236.549 149.467 235.698 152.134C235.483 152.804 234.824 153.237 234.112 153.237ZM231.237 161.033C231.036 161.033 230.832 160.998 230.634 160.926C229.782 160.615 229.361 159.719 229.694 158.924C230.226 157.654 230.731 156.372 231.194 155.114C231.492 154.307 232.434 153.878 233.299 154.156C234.164 154.434 234.623 155.313 234.326 156.12C233.848 157.417 233.327 158.739 232.779 160.049C232.523 160.658 231.899 161.033 231.237 161.033ZM228.391 167.184C228.154 167.184 227.915 167.136 227.687 167.036C226.859 166.671 226.505 165.75 226.895 164.979C227.281 164.213 227.658 163.443 228.025 162.668C228.394 161.886 229.369 161.532 230.208 161.877C231.044 162.222 231.424 163.134 231.054 163.915C230.677 164.714 230.289 165.508 229.89 166.297C229.608 166.856 229.012 167.184 228.391 167.184Z" fill="#45B29A"/>
<path d="M240.191 123.196H236.88C236.88 68.5277 189.83 25.3337 132 25.3337C103.194 25.3337 76.3335 36.0236 56.3677 55.415L53.9785 53.2787C74.5751 33.2752 102.284 22.2403 132 22.2403C191.657 22.2403 240.191 67.7577 240.191 123.196Z" fill="#45B29A"/>
<path d="M63.0709 57.8236L47.4297 62.7622L50.6662 47.6499L63.0709 57.8236Z" fill="#45B29A"/>
</svg>
