<svg width="180" height="172" viewBox="0 0 180 172" fill="none" xmlns="http://www.w3.org/2000/svg">
<g clip-path="url(#clip0)">
<path d="M103.586 143.527V59.3724C103.586 59.3724 115.492 58.8327 117.185 64.9468C117.185 64.9468 125.586 63.1486 122.198 72.8588C122.198 72.8588 129.691 68.0038 134.96 76.2751C134.96 76.2751 143.881 75.1966 143.129 84.1871C143.129 84.1871 154.549 93.7767 143.213 104.806C143.213 104.806 131.896 117.993 118.347 109.182C118.347 109.182 115.47 114.396 108.822 112.958L110.005 143.543L103.586 143.527" fill="#45B29A"/>
<path d="M104.441 143.163H99.9247L102.183 111.742C102.183 111.742 95.7847 110.866 92.2094 107.629C92.2094 107.629 85.811 108.42 82.2357 104.165C82.2357 104.165 85.2465 106.389 88.8221 106.029C88.8221 106.029 82.5046 100.584 79.7172 96.6323C79.7172 96.6323 71.1331 96.5036 66.2402 90.5696C66.2402 90.5696 74.0705 96.427 78.9634 95.5277C78.9634 95.5277 74.1439 91.8292 73.0147 84.8167C73.0147 84.8167 75.0217 89.8799 76.7151 90.7792C76.7151 90.7792 74.7084 84.8167 76.0258 78.7026C76.0258 78.7026 74.3953 91.3196 83.9924 99.0518C83.9924 99.0518 81.295 94.8862 82.8002 88.2333C82.8002 88.2333 80.5421 100.461 95.5965 107.473C95.5965 107.473 89.1986 103.697 89.3865 94.5269C89.3865 94.5269 90.3276 100.55 92.7739 102.528C92.7739 102.528 90.7669 97.8527 92.021 92.3688C92.021 92.3688 92.2094 107.833 102.371 109.452L102.936 104.177C102.936 104.177 97.2902 97.4039 96.5376 92.1893C96.5376 92.1893 85.2465 85.1763 85.3407 77.2643C85.3407 77.2643 87.8813 82.4786 89.575 83.9174C89.575 83.9174 87.6931 79.0628 89.1986 77.2643C89.1986 77.2643 89.1986 87.5136 95.9728 89.3118C95.9728 89.3118 90.5157 79.9612 92.021 66.4756C92.021 66.4756 92.021 73.308 94.0913 77.6239C94.0913 77.6239 93.5268 70.6111 97.2902 64.497C97.2902 64.497 92.1408 79.9612 98.4793 90.3911C98.4793 90.3911 99.5484 84.9962 99.9247 80.8604C99.9247 80.8604 100.866 86.6149 99.3602 92.9085C99.3602 92.9085 99.7368 97.3568 104.817 102.572L104.441 143.163Z" fill="#45B29A"/>
<path d="M39.4405 74.9293C39.2886 74.9293 39.1342 74.8997 38.9865 74.8374C38.4161 74.5974 38.1565 73.9602 38.4077 73.4154C38.712 72.7556 39.0269 72.101 39.3518 71.4527C39.6209 70.9147 40.2955 70.6884 40.858 70.9461C41.4202 71.2033 41.6576 71.8481 41.3878 72.3856C41.0733 73.0128 40.769 73.6463 40.4748 74.2851C40.2883 74.6887 39.8744 74.9293 39.4405 74.9293V74.9293ZM37.2466 80.2868C37.1245 80.2868 37.001 80.268 36.8791 80.2285C36.2893 80.035 35.9762 79.4209 36.1784 78.8571C36.51 77.9369 36.865 77.0137 37.2339 76.1139C37.4614 75.5584 38.1178 75.2862 38.6967 75.5028C39.2776 75.7197 39.564 76.3459 39.3364 76.9008C38.9791 77.7726 38.6349 78.6665 38.3145 79.5593C38.1534 80.006 37.7154 80.2868 37.2466 80.2868V80.2868ZM34.8501 88.6035C34.773 88.6035 34.6958 88.5965 34.6178 88.5804C34.0069 88.4589 33.6158 87.887 33.7438 87.3044C34.1582 85.4068 34.6633 83.5013 35.244 81.6394C35.4227 81.0689 36.0506 80.7439 36.6489 80.9141C37.2466 81.0842 37.5859 81.6851 37.408 82.2567C36.8452 84.0603 36.3564 85.9069 35.9534 87.7452C35.8424 88.2544 35.3729 88.6035 34.8501 88.6035ZM33.3084 102.889C32.6853 102.889 32.1797 102.405 32.1797 101.809C32.1797 97.9098 32.5163 93.9952 33.1799 90.1755C33.2822 89.5877 33.86 89.1913 34.4788 89.2883C35.0935 89.3861 35.5095 89.9414 35.4073 90.5294C34.7641 94.2325 34.4379 98.0275 34.4379 101.809C34.4379 102.405 33.9319 102.889 33.3084 102.889" fill="#45B29A"/>
<path d="M105.946 172.013C65.2716 172.013 32.1797 140.206 32.1797 101.238H34.4379C34.4379 139.4 66.5167 169.854 105.946 169.854C125.613 169.854 143.944 162.525 157.561 148.958L159.191 150.38C145.143 164.376 126.234 172.013 105.946 172.013Z" fill="#45B29A"/>
<path d="M152.988 147.432L163.65 143.975L161.454 154.526L152.988 147.432Z" fill="#45B29A"/>
<path d="M177.601 114.346C177.539 114.346 177.478 114.34 177.414 114.331C176.8 114.233 176.384 113.677 176.486 113.09C177.128 109.389 177.455 105.594 177.455 101.809C177.455 101.214 177.961 100.731 178.584 100.731C179.207 100.731 179.713 101.214 179.713 101.809C179.713 105.712 179.377 109.627 178.713 113.443C178.621 113.971 178.143 114.346 177.601 114.346V114.346ZM175.568 122.75C175.461 122.75 175.352 122.736 175.245 122.705C174.647 122.535 174.307 121.934 174.485 121.363C175.048 119.559 175.537 117.712 175.94 115.874C176.067 115.289 176.669 114.914 177.275 115.039C177.886 115.16 178.277 115.732 178.15 116.315C177.735 118.212 177.23 120.118 176.649 121.979C176.503 122.447 176.054 122.75 175.568 122.75V122.75ZM173.607 128.19C173.471 128.19 173.332 128.167 173.196 128.117C172.616 127.9 172.329 127.274 172.555 126.719C172.919 125.833 173.263 124.938 173.578 124.06C173.781 123.497 174.424 123.201 175.013 123.39C175.603 123.585 175.916 124.198 175.714 124.762C175.388 125.668 175.033 126.591 174.659 127.505C174.485 127.931 174.059 128.19 173.607 128.19ZM171.668 132.485C171.506 132.485 171.342 132.452 171.187 132.382C170.623 132.128 170.381 131.485 170.647 130.946C170.91 130.412 171.168 129.875 171.417 129.334C171.67 128.788 172.337 128.543 172.905 128.781C173.476 129.021 173.735 129.658 173.484 130.203C173.226 130.762 172.961 131.316 172.689 131.866C172.496 132.257 172.091 132.485 171.668 132.485Z" fill="#45B29A"/>
<path d="M179.713 101.238H177.455C177.455 63.8815 145.376 33.1935 105.946 33.1935C86.3059 33.1935 67.9921 40.7905 54.3782 54.3269L52.75 52.9036C66.7931 38.9394 85.6852 31.0003 105.946 31.0003C146.621 31.0003 179.713 62.5378 179.713 101.238" fill="#45B29A"/>
<path d="M58.9501 56.1438L48.2852 59.5913L50.4918 49.0418L58.9501 56.1438Z" fill="#45B29A"/>
</g>
<defs>
<clipPath id="clip0">
<rect width="180" height="172" fill="white"/>
</clipPath>
</defs>
</svg>
